<svg width="81" height="58" viewBox="0 0 81 58" fill="none" xmlns="http://www.w3.org/2000/svg">
<path d="M29.091 0C29.1661 0.253439 29.504 0.337919 29.5228 0.638292C29.5228 5.97929 29.5228 11.3203 29.5228 16.6425C29.3632 16.9335 29.1004 16.8584 28.8657 16.8584C28.5935 16.5956 28.4902 16.2858 28.4902 15.901C28.4996 10.8228 28.4996 5.74463 28.4996 0.675838C28.4996 0.441172 28.4808 0.19712 28.6498 0C28.7906 0 28.9408 0 29.091 0Z" fill="#CBB894"/>
<path d="M39.6602 2.09332C39.9042 2.05577 40.1389 2.01823 40.3266 2.25289C40.4768 2.85364 40.2609 3.39806 40.045 3.94249C39.801 4.55262 39.5381 5.16275 39.3128 5.78227C39.1627 6.1859 38.9468 6.56136 38.7872 6.96499C38.4587 7.76285 38.0738 8.54194 37.764 9.34919C37.398 10.3066 36.8817 11.2078 36.647 12.2121C36.3185 12.5313 36.2903 13.0006 36.0838 13.3855C35.8492 13.7985 35.6427 14.2584 35.53 14.6996C35.408 15.1783 34.9856 15.5256 35.0325 16.0513C34.7134 16.5018 34.5069 17.0181 34.3192 17.525C34.2253 17.7784 34.0376 17.891 33.8968 18.0506C33.709 17.8347 33.5307 17.6376 33.3617 17.4311C33.1834 17.0275 33.5401 16.6614 33.6715 16.2202C33.878 15.5256 34.2253 14.8685 34.4506 14.1739C34.5914 13.7421 34.873 13.3573 35.0138 12.9349C35.4549 11.6395 36.0932 10.4287 36.5344 9.12391C36.6658 8.72029 36.9005 8.34482 37.0601 7.9412C37.4261 7.03069 37.9142 6.17651 38.1583 5.21907C38.5431 4.79667 38.6182 4.22409 38.8623 3.73598C39.097 3.27604 39.2753 2.77854 39.4818 2.29982C39.51 2.23412 39.5944 2.16841 39.6602 2.09332Z" fill="#CBB894"/>
<path d="M24.6212 17.6952C24.5461 17.7702 24.4991 17.8172 24.424 17.8923C24.2739 17.8923 24.1049 17.8923 23.889 17.8923C23.5511 17.2164 23.1475 16.5406 22.8752 15.8178C22.7063 15.3673 22.4904 14.9449 22.312 14.4943C21.8146 13.2459 21.195 12.0444 20.7163 10.796C20.2001 9.45368 19.543 8.1771 19.1394 6.78787C18.9704 6.2059 18.6513 5.66148 18.4072 5.09828C18.135 4.46937 18.0599 3.76537 17.675 3.1834C17.5906 3.06138 17.7314 2.58266 17.8816 2.23535C18.5574 2.31044 18.8202 2.86426 18.9704 3.37114C19.1112 3.86863 19.4022 4.28164 19.5524 4.76036C19.8903 5.84921 20.4066 6.87235 20.8196 7.93304C21.1012 8.67459 21.4485 9.39736 21.7864 10.1201C22.0492 10.6739 22.2276 11.2747 22.481 11.8285C22.7344 12.3917 22.9128 12.9924 23.185 13.5275C23.6168 14.3629 23.889 15.264 24.2457 16.1276C24.4522 16.6251 24.7244 17.132 24.6212 17.6952Z" fill="#CBB894"/>
<path d="M55.9367 39.7438C55.9273 39.969 55.993 40.2131 55.7114 40.3727C55.2514 40.4571 54.8103 40.2788 54.3409 40.1098C52.7077 39.5091 51.1776 38.6831 49.5162 38.1762C48.9248 37.7632 48.2302 37.5755 47.5732 37.322C46.2966 36.8339 45.0669 36.2238 43.7622 35.8014C43.3773 35.6793 43.03 35.4447 42.6358 35.3133C42.0163 35.088 41.4437 34.7407 40.8336 34.4966C40.4581 34.3464 40.2047 34.1306 40.0732 33.7269C40.1859 33.4359 40.4956 33.4172 40.7021 33.2764C41.6408 33.6518 42.5513 34.0367 43.4712 34.3746C44.0907 34.6093 44.7196 34.8439 45.3204 35.0974C45.9681 35.379 46.6157 35.6793 47.2728 35.9234C48.5494 36.4115 49.7884 37.0123 51.0838 37.4534C51.5249 37.6036 51.9661 37.8195 52.3979 38.0354C53.2427 38.4484 54.125 38.7488 54.9698 39.1618C55.289 39.3214 55.6551 39.3965 55.9367 39.7438Z" fill="#CBB894"/>
<path d="M33.5593 40.0996C34.4041 40.1935 34.4979 40.8881 34.6857 41.3762C34.864 41.8455 35.1174 42.2773 35.2582 42.7654C35.4178 43.3098 35.69 43.8167 35.8965 44.3424C36.103 44.8774 36.2908 45.4218 36.5254 45.9287C36.7695 46.445 36.9385 46.9894 37.2201 47.4963C37.4453 47.9093 37.6706 48.3599 37.7926 48.8104C37.9147 49.261 38.3089 49.5989 38.2714 50.0964C38.6656 50.5094 38.7501 51.082 38.9847 51.5795C39.4541 52.5651 39.8202 53.5976 40.1862 54.6301C40.2613 54.8554 40.374 55.0525 40.4866 55.3341C40.4866 55.4655 40.4866 55.6814 40.4866 55.9349C39.9328 55.9443 39.5479 55.7941 39.2851 55.259C38.966 54.602 38.675 53.9355 38.4122 53.2503C38.2714 52.8654 38.0649 52.5088 37.9147 52.1239C37.511 51.0632 36.9854 50.0401 36.5818 48.9794C36.2157 48.0219 35.7933 47.0833 35.4178 46.1352C35.155 45.4594 34.8452 44.7929 34.573 44.1171C34.1976 43.1878 33.7939 42.2679 33.4654 41.3199C33.3715 41.0477 33.3058 40.7942 33.4372 40.5783C33.5405 40.4188 33.4936 40.2498 33.5593 40.0996Z" fill="#CBB894"/>
<path d="M49.8432 49.1107C49.7868 49.4017 49.7962 49.411 49.4959 49.6926C49.1298 49.7677 48.82 49.6551 48.5478 49.3829C48.4633 49.2984 48.3695 49.2045 48.285 49.1201C45.1968 46.0412 42.1086 42.9624 39.0204 39.8742C38.5041 39.3579 38.1286 38.7197 37.5467 38.2785C37.5467 38.0438 37.5467 37.8373 37.5467 37.5933C37.8189 37.5933 38.0911 37.5933 38.2976 37.5933C42.1649 41.4512 45.9946 45.2715 49.8432 49.1107Z" fill="#CBB894"/>
<path d="M23.9279 40.1275C24.1626 40.0899 24.4067 40.0242 24.6132 40.3152C24.707 40.7751 24.5287 41.2163 24.3503 41.6856C24.003 42.6055 23.6463 43.516 23.2709 44.4172C23.008 45.0648 22.6889 45.7125 22.4448 46.3696C22.06 47.4209 21.5343 48.4065 21.1964 49.4766C21.0744 49.852 20.8585 50.2181 20.6989 50.5936C20.3235 51.4947 19.8729 52.377 19.5068 53.2781C19.2534 53.9164 18.9624 54.536 18.709 55.1649C18.5682 55.5122 18.4086 55.7844 17.9956 55.8876C17.6952 55.5779 17.6389 55.2493 17.7797 54.7425C18.0237 53.8977 18.296 53.0904 18.6808 52.3019C18.8873 51.8702 19.0938 51.4196 19.2346 50.9784C19.3754 50.5185 19.6852 50.1336 19.7697 49.6361C19.8354 49.2794 20.0606 48.9227 20.2296 48.5754C20.652 47.7119 20.9618 46.8014 21.3748 45.9472C21.6939 45.2901 21.9567 44.6049 22.2383 43.9384C22.5106 43.2908 22.764 42.6243 23.0362 41.9766C23.299 41.3665 23.468 40.6719 23.9279 40.1275Z" fill="#CBB894"/>
<path d="M17.7978 23.8602C17.7978 24.1231 17.7978 24.3859 17.7978 24.6769C17.5255 24.6769 17.2627 24.6769 16.9811 24.6769C16.6057 24.414 16.1176 24.3296 15.6858 24.1137C15.3197 23.9353 14.9161 23.8227 14.5406 23.6631C13.4424 23.2126 12.3723 22.7151 11.2459 22.3208C10.5607 22.0768 9.92237 21.7013 9.23714 21.4572C8.46744 21.1757 7.71651 20.8283 6.95619 20.5374C6.51501 20.3684 6.07384 20.1619 5.64206 19.9648C4.52505 19.4485 3.35172 19.0449 2.25348 18.4066C2.25348 18.2376 2.25348 18.0217 2.25348 17.8246C2.61017 17.4585 3.00441 17.6557 3.3611 17.7683C4.37486 18.1156 5.36984 18.5286 6.34606 18.9604C7.51 19.4767 8.67394 20.0023 9.84727 20.5092C10.9549 20.9879 12.0719 21.4572 13.1795 21.9266C14.0149 22.2833 14.8785 22.5836 15.7139 22.9497C16.4085 23.2501 17.197 23.344 17.7978 23.8602Z" fill="#CBB894"/>
<path d="M2.2445 40.1749C2.17879 39.4615 2.75138 39.2175 3.23009 39.0955C3.68065 38.9734 4.06551 38.72 4.50668 38.5792C4.91969 38.4478 5.35148 38.2225 5.76449 38.0535C6.52481 37.7438 7.26635 37.3871 8.05483 37.1337C8.48661 36.9929 8.88085 36.7394 9.29387 36.5517C10.1668 36.1574 11.0586 35.8101 11.9409 35.4159C12.6449 35.1061 13.3864 34.8433 14.0998 34.5429C14.9822 34.1675 15.8739 33.8202 16.7844 33.5198C17.0942 33.4165 17.4133 33.3602 17.77 33.2664C17.77 33.5761 17.77 33.8483 17.77 34.1581C17.3476 34.5899 16.7187 34.665 16.1837 34.8996C15.7331 35.1061 15.2732 35.3126 14.8038 35.5004C13.6493 35.9416 12.5323 36.4578 11.3965 36.9459C10.3827 37.3589 9.37835 37.8095 8.3552 38.2037C6.8815 38.7669 5.46412 39.4615 3.96225 39.959C3.72759 40.0341 3.49292 40.1562 3.27703 40.2688C2.88279 40.4659 2.57303 40.372 2.2445 40.1749Z" fill="#CBB894"/>
<path d="M20.6053 20.1615C20.4832 20.3023 20.3612 20.4525 20.2955 20.5369C19.9482 20.6777 19.798 20.2647 19.5446 20.4525C17.564 18.4813 15.5459 16.5852 13.6779 14.5577C11.9508 12.6803 10.0641 10.9532 8.32752 9.08524C8.24304 8.78487 8.40262 8.54081 8.53403 8.29676C8.81563 8.24044 9.03152 8.4094 9.23803 8.5502C9.36005 8.63468 9.45392 8.75671 9.55717 8.85996C13.049 12.3424 16.5502 15.8342 20.0421 19.3167C20.2767 19.5513 20.5489 19.7579 20.6053 20.1615Z" fill="#CBB894"/>
<path d="M48.9056 8.44751C49.1215 8.44751 49.3186 8.44751 49.4969 8.44751C49.5251 8.47567 49.5533 8.49444 49.5533 8.51322C49.5533 8.75727 49.5533 9.00132 49.5533 9.24537C45.9676 12.8217 42.3819 16.398 38.8055 19.9649C38.5897 20.1808 38.3925 20.4343 38.0828 20.5469C37.8669 20.5469 37.651 20.5469 37.4257 20.5469C37.3131 20.1527 37.4726 19.8523 37.7167 19.5801C37.7355 19.5613 37.7542 19.5425 37.773 19.5237C38.8525 18.5569 39.7161 17.393 40.758 16.3886C41.7999 15.3749 42.7667 14.2766 43.8649 13.3192C45.6203 11.7985 47.1597 10.0432 48.9056 8.44751Z" fill="#CBB894"/>
<path d="M40.053 24.0868C40.3722 23.5987 40.9072 23.4673 41.3578 23.2514C41.8271 23.0261 42.3246 22.829 42.8127 22.6694C43.2914 22.5098 43.7513 22.3127 44.2207 22.125C45.2814 21.7026 46.3327 21.2614 47.3652 20.7733C47.9659 20.4917 48.5855 20.257 49.1862 19.9848C49.7682 19.722 50.3689 19.4873 50.9603 19.2714C51.7957 18.9617 52.5936 18.558 53.4384 18.2764C53.8795 18.1263 54.2738 17.9104 54.6962 17.7414C55.081 17.5912 55.4096 17.5724 55.7662 17.8071C55.7662 17.9573 55.7662 18.1263 55.7662 18.314C55.3063 18.6425 54.7713 18.8584 54.2456 19.0837C53.9077 19.2339 53.5698 19.3559 53.2319 19.4873C52.3213 19.8534 51.4202 20.2382 50.5097 20.6137C49.6462 20.9704 48.7732 21.3177 47.9378 21.7495C47.5154 21.9654 47.0648 22.1813 46.6237 22.3127C46.1731 22.4441 45.7976 22.7069 45.3471 22.829C44.9528 22.9322 44.5586 23.1857 44.1644 23.3546C43.1412 23.7958 42.1087 24.2276 41.0762 24.6594C40.6444 24.8377 40.2032 24.603 40.053 24.0868Z" fill="#CBB894"/>
<path d="M9.01294 50.0411C8.81582 49.844 8.65625 49.6844 8.47791 49.5155C8.47791 49.2714 8.47791 49.0086 8.47791 48.7364C12.2513 44.9723 16.0248 41.2083 19.7888 37.4536C20.0235 37.4536 20.2394 37.4536 20.4646 37.4536C20.4646 37.7164 20.4646 37.9605 20.4646 38.2609C20.2769 38.4486 20.0516 38.6739 19.8264 38.8992C16.419 42.2971 13.0117 45.6951 9.6043 49.0931C9.35086 49.3559 9.08804 49.5999 9.01294 50.0411Z" fill="#CBB894"/>
<path d="M57.7485 28.553C58.077 28.7501 57.9925 28.9848 58.0113 29.2288C57.8987 29.3227 57.7673 29.4353 57.5889 29.5761C52.3042 29.5761 46.9538 29.5761 41.6879 29.5761C41.3406 29.4447 41.106 29.2945 40.937 29.0317C40.9746 28.8064 41.1904 28.7032 41.3312 28.553C46.8224 28.553 52.3042 28.553 57.7485 28.553Z" fill="#CBB894"/>
<path d="M0.507835 29.5682C0.367036 29.465 0.263783 29.2491 0.0291166 29.2397C-0.0929098 28.9018 0.198076 28.7704 0.357649 28.5732C5.81129 28.5732 11.2649 28.5732 16.6716 28.5732C16.7749 28.6577 16.85 28.7234 16.9157 28.7704C16.9532 29.1083 16.7373 29.3148 16.6341 29.5682C11.2462 29.5682 5.89577 29.5682 0.507835 29.5682Z" fill="#CBB894"/>
<path d="M29.5303 57.4648C29.352 57.6526 29.183 57.8215 29.014 57.9999C28.8545 57.8403 28.6949 57.6807 28.5165 57.5024C28.5165 52.1802 28.5165 46.8392 28.5165 41.4888C28.6292 41.3668 28.7512 41.2447 28.8638 41.1321C29.1454 41.1133 29.3144 41.179 29.3989 41.4888C29.4834 41.7892 29.5397 42.0801 29.5397 42.3899C29.5303 47.4211 29.5303 52.4524 29.5303 57.4648Z" fill="#CBB894"/>
<path d="M50.8956 33.5197C50.5295 33.8858 50.1071 33.7732 49.7692 33.6887C49.5627 33.6324 49.3468 33.576 49.1497 33.6042C48.9056 33.6418 48.7742 33.4259 48.5395 33.4352C47.8261 33.4634 47.1597 33.1443 46.4463 33.1443C46.1835 32.8251 45.7235 33.1724 45.4607 32.8439C45.1134 32.919 44.813 32.7125 44.4845 32.7031C44.1184 32.7031 43.8087 32.4309 43.4332 32.5435C42.9545 32.2244 42.3631 32.2901 41.8375 32.1211C41.1335 31.8958 41.1147 31.9522 40.7956 31.3702C40.7956 31.342 40.7862 31.3139 40.7956 31.2951C40.9176 31.1731 41.0396 31.051 41.1804 30.929C41.8656 30.8445 42.5039 31.1261 43.1516 31.3045C43.4614 31.389 43.8368 31.2294 44.0903 31.5204C44.8318 31.464 45.517 31.8771 46.2586 31.8207C46.6434 32.093 47.1222 31.9709 47.5539 32.0836C47.9482 32.1868 48.38 32.2713 48.8117 32.2901C49.206 32.3088 49.6096 32.4778 50.0132 32.5811C50.3699 32.6655 50.7829 32.872 50.7642 33.3977C50.7736 33.4259 50.8393 33.4634 50.8956 33.5197Z" fill="#CBB894"/>
<path d="M16.9055 47.6566C16.7084 47.4313 16.5394 47.2342 16.3611 47.0277C18.0882 44.4276 19.6464 41.6586 21.5894 39.0678C21.7021 39.0678 21.8429 39.0678 21.9837 39.0678C22.1151 39.0772 22.1432 38.8801 22.3779 38.9458C22.3967 38.9834 22.453 39.096 22.5656 39.3213C22.4718 39.7249 22.1902 40.2318 21.871 40.7011C20.4255 42.8882 18.933 45.0471 17.5156 47.253C17.3748 47.4595 17.2059 47.7223 16.9055 47.6566Z" fill="#CBB894"/>
<path d="M18.2672 22.4901C17.2346 21.8142 16.3429 21.1853 15.4042 20.6315C15.1883 20.5095 15.0475 20.2279 14.7565 20.2466C14.2403 19.721 13.5644 19.43 12.9543 19.0545C12.3442 18.6697 11.7998 18.2097 11.1427 17.9094C10.8892 17.7967 10.7578 17.5527 10.5513 17.4025C10.5513 17.1397 10.5513 16.8956 10.5513 16.614C10.8142 16.614 11.077 16.614 11.3867 16.614C11.6026 16.7736 11.8467 17.027 12.1377 17.1584C12.8041 17.4494 13.3579 17.9094 13.9587 18.2942C15.3479 19.1766 16.6996 20.1246 18.0888 21.007C18.5112 21.2792 18.774 21.6922 19.1683 21.9644C19.1495 22.246 18.9054 22.3211 18.7928 22.4994C18.5769 22.4901 18.3798 22.4901 18.2672 22.4901Z" fill="#CBB894"/>
<path d="M41.3493 27.0798C41.1616 26.892 40.8894 26.77 40.9551 26.4415C41.1147 26.0566 41.5277 25.9628 41.8187 25.9158C42.7855 25.775 43.6866 25.3245 44.6722 25.2963C44.9632 25.0523 45.3199 25.1931 45.6484 25.1461C46.1741 25.0616 46.7279 25.0147 47.2254 24.8364C47.8261 24.6205 48.455 24.6111 49.037 24.3952C49.4876 24.2356 49.9287 24.2826 50.3699 24.2544C50.5107 24.4609 50.8299 24.536 50.736 24.8645C50.6046 25.3057 50.1728 25.3339 49.8443 25.4277C49.3843 25.5685 48.9056 25.6812 48.4269 25.7656C48.0045 25.8407 47.5539 25.8877 47.1409 26.0379C46.7467 26.1787 46.3243 26.2256 45.93 26.3007C45.5452 26.3664 45.1509 26.479 44.7379 26.5072C44.3531 26.5353 43.9588 26.5917 43.5834 26.7512C43.283 26.8827 42.8981 26.648 42.6259 26.9296C42.1754 26.8263 41.7811 27.0892 41.3493 27.0798Z" fill="#CBB894"/>
<path d="M7.06998 24.6959C7.53931 24.2077 8.05557 24.1796 8.60939 24.3392C9.1632 24.4987 9.7264 24.6301 10.3084 24.7334C11.0124 24.8648 11.7539 24.846 12.4297 25.1464C13.0868 25.0432 13.6782 25.3717 14.3071 25.4656C15.0768 25.5782 15.8277 25.8504 16.588 26.0288C16.8321 26.0851 16.8978 26.3104 17.0761 26.3948C16.9917 26.7985 16.9917 26.7985 16.4191 27.0894C16.1562 26.9862 15.8371 26.9768 15.5555 26.9017C14.8984 26.7421 14.2132 26.7703 13.5749 26.4981C13.3309 26.3948 13.0211 26.3854 12.7489 26.3573C11.8572 26.2634 10.9936 26.0288 10.1206 25.8692C9.43541 25.7472 8.75019 25.597 8.07435 25.4468C7.66134 25.3529 7.38912 25.0619 7.06998 24.6959Z" fill="#CBB894"/>
<path d="M16.3145 10.8881C16.5022 10.7003 16.6806 10.5314 16.8683 10.353C16.9528 10.353 17.0467 10.353 17.1405 10.353C17.3846 10.7473 17.5817 11.1791 17.8915 11.517C18.2106 11.8737 18.4359 12.2773 18.7175 12.6621C19.2525 13.3943 19.7782 14.1265 20.2381 14.9149C20.7919 15.8536 21.4584 16.7078 21.9934 17.6558C22.1906 18.0125 22.3689 18.388 22.5848 18.6508C22.5191 19.0169 22.3501 19.1108 22.1624 19.092C21.1862 18.7165 20.914 17.7872 20.3789 17.102C19.6468 16.1727 19.0179 15.1496 18.3514 14.1734C17.6193 13.1409 16.8308 12.1365 16.3145 10.8881Z" fill="#CBB894"/>
<path d="M47.779 40.9169C47.5631 41.1422 47.3754 41.33 47.0938 41.6116C46.8122 41.6773 46.4555 41.4238 46.1645 41.1985C45.2916 40.5321 44.3623 39.9501 43.4424 39.3588C42.4474 38.7205 41.4524 38.0822 40.4668 37.4345C40.3448 37.3594 40.2509 37.2374 40.1477 37.1341C39.913 36.8995 39.6971 36.646 39.3592 36.5428C39.087 36.4583 38.9462 36.2518 38.8899 36.1204C38.8992 35.7449 39.1621 35.7074 39.209 35.5478C39.5094 35.4164 39.7816 35.529 39.9693 35.6698C41.1708 36.5052 42.438 37.2562 43.6207 38.1103C44.9255 39.0584 46.3147 39.875 47.6101 40.8325C47.6382 40.87 47.7321 40.8512 47.779 40.9169Z" fill="#CBB894"/>
<path d="M41.2932 47.6459C40.6361 47.477 40.317 46.9232 39.9697 46.4257C39.2469 45.4025 38.5617 44.3512 37.8764 43.3093C37.1255 42.1735 36.384 41.019 35.633 39.8738C35.633 39.6204 35.633 39.3575 35.633 39.0759C35.8208 39.0759 35.9803 39.0759 36.1493 39.0759C36.7125 39.5922 37.1255 40.2211 37.5479 40.8594C37.9609 41.4789 38.4396 42.0609 38.862 42.6804C39.6036 43.7505 40.3357 44.8206 41.0491 45.9094C41.2744 46.2473 41.3213 46.6791 41.5278 47.0452C41.6311 47.2329 41.5935 47.5239 41.2932 47.6459Z" fill="#CBB894"/>
<path d="M47.038 16.3975C47.2351 16.5195 47.3853 16.6134 47.5449 16.7072C47.6482 16.7729 47.7514 16.8292 47.7983 16.8574C47.7232 17.3361 47.3666 17.3643 47.16 17.5145C45.9492 18.378 44.7195 19.2135 43.4711 20.0301C42.2696 20.8186 41.0587 21.5977 39.876 22.4237C39.7164 22.5363 39.5287 22.6771 39.2189 22.6114C39.1439 22.5082 39.0312 22.358 38.8716 22.1421C38.8716 22.1233 38.8716 22.0013 38.8716 21.8229C39.2002 21.4005 39.7258 21.1565 40.1858 20.8655C41.819 19.8611 43.4054 18.7723 45.0105 17.721C45.677 17.2986 46.3059 16.8105 47.038 16.3975Z" fill="#CBB894"/>
<path d="M36.3827 18.9321C36.0635 18.9321 35.8664 18.9321 35.6411 18.9321C35.6411 18.6692 35.6411 18.4064 35.6411 18.1436C36.0166 17.5804 36.4108 16.9984 36.7957 16.4164C37.6311 15.168 38.4759 13.9102 39.3113 12.6524C39.5272 12.3239 39.7337 11.9953 39.9214 11.6574C40.1655 11.2256 40.4752 10.822 40.907 10.5029C41.2543 10.4278 41.3764 10.7187 41.5453 10.8971C41.5829 11.2538 41.3857 11.4884 41.2449 11.7043C39.668 14.1449 38.091 16.5854 36.3827 18.9321Z" fill="#CBB894"/>
<path d="M32.8452 7.2561C33.0799 7.2561 33.277 7.2561 33.4553 7.2561C33.5867 7.38752 33.7088 7.50954 33.8308 7.63157C33.8871 8.03519 33.5961 8.40127 33.6712 8.81429C33.3802 9.0865 33.6806 9.52767 33.3896 9.79988C33.399 10.2504 33.2113 10.6635 33.155 11.1046C33.0986 11.5458 33.0142 11.987 32.9203 12.4188C32.7889 13.0007 32.6575 13.5827 32.5167 14.1647C32.3759 14.7466 32.282 15.338 32.0661 15.9012C31.991 16.0889 32.0473 16.2954 31.9253 16.5113C31.7188 16.8774 31.7657 16.9056 31.4654 17.159C31.165 17.1215 31.2025 16.7929 31.0148 16.6427C31.0711 16.3987 30.9397 16.1453 31.1462 15.8918C31.2776 15.7322 31.1462 15.4506 31.2401 15.1972C31.3809 14.8405 31.3809 14.4181 31.4372 14.0239C31.4841 13.6766 31.7188 13.348 31.6062 12.982C31.9253 12.7473 31.578 12.3061 31.8878 12.0621C31.8221 11.6491 32.0379 11.283 32.0661 10.8793C32.0943 10.4945 32.1787 10.1096 32.2914 9.72479C32.3946 9.3681 32.404 8.98325 32.4979 8.62655C32.6293 8.19477 32.6011 7.71605 32.8452 7.2561Z" fill="#CBB894"/>
<path d="M24.3411 50.3973C24.313 49.759 24.4444 49.1958 24.5946 48.6138C24.679 48.3041 24.7447 47.9755 24.7729 47.6564C24.8386 46.9993 25.1296 46.3798 25.0733 45.7133C25.4018 44.9343 25.3173 44.0613 25.6552 43.2916C25.5989 42.5219 25.9838 41.8179 25.965 41.02C26.2748 41.02 26.5845 41.02 26.9694 41.02C27.1946 41.1045 27.204 41.3861 27.1289 41.602C26.8286 42.5125 26.7253 43.4605 26.5188 44.3804C26.4343 44.7559 26.3499 45.1501 26.2748 45.5256C26.1997 45.9105 26.0025 46.2953 26.0964 46.7177C25.7585 47.6001 25.7491 48.5763 25.383 49.4492C25.2985 49.6463 25.3455 49.8529 25.261 50.0594C25.1577 50.341 25.0263 50.5568 24.8104 50.7446C24.5945 50.7446 24.5288 50.5193 24.3411 50.3973Z" fill="#CBB894"/>
<path d="M10.5601 41.377C10.4569 41.133 10.8699 41.0203 10.6634 40.7951C11.2641 40.0911 12.0526 39.6968 12.7754 39.2087C14.0332 38.3639 15.291 37.5285 16.5488 36.6837C17.0932 36.3176 17.6283 35.9328 18.229 35.5198C18.3698 35.5198 18.5857 35.5198 18.7734 35.5198C18.9987 35.623 18.9518 35.8765 19.1113 35.9891C19.1395 36.0267 19.1113 36.0454 19.0738 36.0924C18.52 36.7307 17.7409 37.0592 17.0932 37.5754C16.1921 38.2888 15.1783 38.8333 14.2678 39.5373C13.5169 40.1192 12.6909 40.6167 11.893 41.1236C11.4894 41.377 11.0482 41.5554 10.5601 41.377Z" fill="#CBB894"/>
<path d="M24.6041 7.23779C24.7824 7.35982 25.0077 7.37859 25.2048 7.60387C25.3268 8.30787 25.524 9.06819 25.6929 9.83789C25.8337 10.4386 25.9182 11.0582 26.0872 11.6683C26.1904 12.0344 26.2373 12.4474 26.3218 12.8322C26.4063 13.2171 26.4532 13.6113 26.5659 13.9868C26.7912 14.7377 26.8569 15.5262 27.1478 16.2584C27.1948 16.3616 27.1572 16.5024 27.1572 16.54C26.9226 16.7652 26.7348 16.9436 26.5189 17.1501C26.2373 17.0656 26.1716 16.7277 25.9651 16.4649C26.0872 16.08 25.7774 15.7139 25.8149 15.3103C25.4864 15.0756 25.8525 14.6251 25.524 14.3904C25.5991 14.0431 25.4207 13.7334 25.3456 13.4236C25.2048 12.8228 25.0922 12.2033 24.9701 11.5932C24.8387 10.9831 24.6322 10.3635 24.6416 9.72525C24.6416 9.4812 24.4257 9.31224 24.482 9.04942C24.5196 8.84291 24.4069 8.6364 24.3694 8.43928C24.2943 8.05443 24.2568 7.62265 24.6041 7.23779Z" fill="#CBB894"/>
<path d="M7.1347 33.36C7.1347 33.2568 7.1347 33.1629 7.1347 33.0597C7.38814 32.8156 7.68852 32.7499 8.01705 32.6748C8.69289 32.5152 9.3875 32.4026 10.0727 32.2806C10.6922 32.1679 11.3211 32.0459 11.9407 31.9333C12.4757 31.83 13.0295 31.708 13.5646 31.5766C14.1278 31.4452 14.7003 31.3044 15.2729 31.2011C15.7516 31.1166 16.2022 30.8726 16.6715 30.9195C16.8593 31.1072 17.0376 31.2856 17.2441 31.4827C17.0188 31.8582 16.7091 32.1398 16.2397 32.0835C16.0145 32.0553 15.8924 32.2243 15.7047 32.243C14.7942 32.3369 13.9025 32.5809 13.0014 32.7124C12.4194 32.7968 11.8093 32.8719 11.2367 33.0972C10.9832 33.2005 10.6547 33.0315 10.42 33.2756C9.83806 33.2099 9.33118 33.5665 8.75859 33.5853C8.58963 33.5947 8.41129 33.82 8.23294 33.7167C7.94196 33.5478 7.57588 33.651 7.30366 33.4351C7.26612 33.407 7.17225 33.4257 7.1347 33.36Z" fill="#CBB894"/>
<path d="M33.6795 50.7347C33.4166 50.7347 33.2101 50.7347 33.0036 50.7347C32.7314 50.5376 32.6657 50.2091 32.6657 49.9744C32.6751 49.552 32.5437 49.1671 32.4592 48.7823C32.3841 48.4068 32.4217 47.9844 32.187 47.6465C32.2152 46.6891 31.7928 45.8443 31.5018 44.9713C31.4548 44.8211 31.4642 44.6897 31.4455 44.5489C31.3985 44.2392 31.5393 43.9106 31.3516 43.629C31.192 43.385 31.3328 43.094 31.1826 42.803C31.0418 42.5308 31.1263 42.1178 31.0043 41.7705C30.901 41.4889 31.2389 41.273 31.1451 40.9351C31.7083 41.1134 31.9523 41.4044 32.0556 41.9394C32.187 42.6434 32.2715 43.3568 32.4686 44.0514C32.6469 44.6522 32.7314 45.2717 32.9379 45.8537C33.0318 46.1165 32.9849 46.3887 33.0881 46.6046C33.2008 46.8393 33.1538 47.0739 33.2289 47.2898C33.4542 48.0032 33.3134 48.7729 33.6325 49.4863C33.8015 49.8242 33.6795 50.2748 33.6795 50.7347Z" fill="#CBB894"/>
<path d="M74.864 34.5336C73.8127 34.5336 72.7707 34.5336 71.7194 34.5336C71.6537 34.1487 71.6256 23.4386 71.6913 22.2652C71.7007 22.2558 71.7194 22.2371 71.7288 22.2371C74.3571 22.2371 76.9854 22.2371 79.623 22.2371C79.6793 22.3685 79.6512 22.5093 79.6512 22.6501C79.6793 23.4855 79.8013 24.3115 79.745 25.1469C79.7356 25.2408 79.7732 25.3347 79.7075 25.4285C79.5948 25.222 79.4634 25.0343 79.3883 24.8278C79.1818 24.2646 78.8064 23.8046 78.4403 23.3447C78.0742 22.8847 77.5579 22.6313 76.9666 22.4999C76.7413 22.453 76.5066 22.4717 76.3001 22.406C76.0561 22.3309 75.8214 22.3309 75.5867 22.3215C75.3521 22.3215 75.1268 22.3215 74.8734 22.3215C74.8734 24.2646 74.8734 26.1795 74.8734 28.1413C75.108 28.1413 75.3615 28.1131 75.5961 28.1506C75.8402 28.1882 76.0373 28.0756 76.2626 28.0286C76.4597 27.9911 76.6662 27.869 76.8352 27.7189C77.2012 27.3903 77.4828 27.0055 77.6706 26.5643C77.7644 26.3484 77.8208 26.1231 77.8959 25.9166C77.9052 25.9636 77.8771 25.8603 77.924 25.8979C77.9334 25.9072 77.9522 25.9166 77.9522 25.9354C77.9897 26.8741 77.9616 30.3565 77.9146 30.7601C77.7832 30.5818 77.7269 30.3659 77.68 30.1688C77.5955 29.8215 77.4077 29.5305 77.2294 29.2301C77.0135 28.864 76.685 28.6763 76.3189 28.498C76.1124 28.4041 75.8965 28.3665 75.69 28.329C75.4366 28.2914 75.1643 28.3196 74.864 28.3196C74.864 30.3283 74.864 32.3277 74.864 34.3271C74.864 34.4022 74.864 34.4679 74.864 34.5336Z" fill="white"/>
<path d="M45.2953 22.4248C45.2953 22.6876 45.239 22.9692 45.3047 23.2133C45.4549 23.7671 45.3516 24.3115 45.3892 24.8653C45.3798 25.0531 45.4173 25.2408 45.3516 25.4567C45.2578 25.2689 45.1827 25.1094 45.1076 24.9592C45.0606 24.809 44.9762 24.6682 44.9011 24.5368C44.5913 24.0111 44.3191 23.4479 43.7934 23.0819C43.7559 22.9317 43.5963 22.9129 43.4931 22.8566C43.1927 22.6595 42.8642 22.4999 42.4793 22.5187C42.423 22.3403 42.2728 22.453 42.1696 22.4248C41.7284 22.3122 40.9587 22.2934 40.5081 22.3779C40.5081 22.6407 40.5081 22.9035 40.5081 23.1757C40.5081 23.5794 40.5081 23.9924 40.5081 24.396C40.5081 24.9873 40.5081 25.5881 40.5081 26.1795C40.5081 26.339 40.5081 26.4892 40.5081 26.6488C40.5081 27.1463 40.5081 27.6438 40.5081 28.1506C40.8648 28.1506 41.1933 28.1506 41.5125 28.1506C41.5876 28.1506 41.6533 28.1319 41.7284 28.1131C42.2634 27.9629 42.6858 27.6625 42.9768 27.212C43.127 26.9867 43.371 26.7896 43.3147 26.4611C43.5118 26.3766 43.4649 26.1513 43.5963 26.0199C43.5963 26.1325 43.5963 26.2545 43.5963 26.3672C43.5963 27.8127 43.5963 29.2677 43.5963 30.7132C43.5963 30.7226 43.5869 30.7414 43.5776 30.7507C43.5682 30.7601 43.5588 30.7601 43.5494 30.7695C43.3992 30.1782 43.1927 29.7276 42.8548 29.1832C42.5262 28.6669 42.0194 28.451 41.4562 28.3478C41.1558 28.2914 40.8367 28.3384 40.5081 28.3384C40.5081 29.1926 40.5081 30.0374 40.5081 30.8728C40.5081 31.1262 40.5081 31.3703 40.5081 31.6237C40.5081 32.1869 40.5081 32.7501 40.5081 33.3133C40.5081 33.6606 40.5081 33.9985 40.5081 34.3458C40.5081 34.374 40.5081 34.4115 40.5081 34.4397C39.4568 34.4397 38.4149 34.4397 37.3636 34.4397C37.2885 34.0267 37.2603 23.9924 37.326 22.2371C37.7297 22.2371 38.1239 22.2371 38.5275 22.2371C38.8091 22.2371 39.0907 22.2371 39.3723 22.2371C40.6208 22.2371 41.8786 22.2371 43.127 22.2371C43.8216 22.2371 44.5162 22.2371 45.2108 22.2371C45.2202 22.2371 45.239 22.2464 45.2484 22.2558C45.2578 22.2652 45.2671 22.2746 45.2765 22.284C45.2953 22.3309 45.2953 22.3779 45.2953 22.4248Z" fill="white"/>
<path d="M26.1469 30.3104C25.9497 30.3292 26.053 30.5075 26.0154 30.6014C25.7432 31.2772 25.5273 31.9625 25.2645 32.6383C25.1988 32.7979 25.2364 32.9387 25.2176 33.0232C25.5086 33.8116 26.175 34.1214 26.9072 34.5156C25.5461 34.5156 24.3071 34.5156 23.0117 34.5156C23.0962 34.4405 23.1431 34.3561 23.1995 34.3467C23.5937 34.2997 23.9035 34.0557 24.2132 33.8586C24.5699 33.6239 24.7764 33.2391 24.9078 32.8448C25.058 32.4224 25.2082 32 25.3678 31.5776C25.5273 31.174 25.6869 30.7704 25.8183 30.3574C25.9591 29.935 26.1187 29.5126 26.2689 29.0902C26.4472 28.5833 26.635 28.0858 26.8321 27.5883C27.1418 26.828 27.339 26.0207 27.7238 25.2792C27.7707 24.838 28.0899 24.4813 28.1744 24.0589C28.2589 23.6365 28.5498 23.2892 28.5686 22.8574C28.7376 22.6509 28.7563 22.3693 28.8878 22.144C29.3102 22.144 29.7232 22.144 30.1643 22.144C30.2864 22.4538 30.4272 22.7542 30.5304 23.0733C30.6149 23.3174 30.7463 23.552 30.812 23.8055C30.8777 24.0495 30.981 24.2654 31.0655 24.5001C31.225 24.9694 31.394 25.4294 31.5723 25.8893C31.6662 26.1334 31.7788 26.368 31.8539 26.6215C31.929 26.8561 32.0135 27.0908 32.098 27.3161C32.2857 27.7854 32.4359 28.2735 32.6143 28.7429C32.7832 29.2028 32.9709 29.6627 33.1305 30.1227C33.2901 30.6014 33.4684 31.0801 33.6468 31.5495C33.8157 32 33.9659 32.4506 34.1349 32.9011C34.3132 33.3892 34.501 33.8773 34.6793 34.3655C34.6981 34.403 34.6793 34.4499 34.6699 34.5156C33.5623 34.5156 32.4547 34.5156 31.3283 34.5156C31.0655 34.2904 31.0373 33.9243 30.934 33.6145C30.5961 32.5632 30.1643 31.5495 29.8827 30.4794C29.8546 30.3855 29.7983 30.3198 29.695 30.301C29.695 30.2353 29.695 30.179 29.695 30.1133C29.695 30.0382 29.7232 29.9443 29.695 29.8786C29.3852 29.2028 29.2163 28.48 28.9535 27.7948C28.6906 27.1002 28.5217 26.3774 28.2776 25.6828C28.2119 25.4951 28.2119 25.251 28.0242 25.129C27.9397 25.1478 27.9303 25.1853 27.9115 25.2322C27.705 25.7204 27.5549 26.2366 27.3671 26.7435C27.048 27.5789 26.757 28.4331 26.466 29.2779C26.3721 29.5501 26.222 29.8129 26.2313 30.1133C26.0999 30.1321 26.1562 30.2353 26.1469 30.3104Z" fill="white"/>
<path d="M64.1624 34.4392C63.1111 34.4392 62.0692 34.4392 61.0179 34.4392C60.9334 34.0168 60.9052 25.766 60.9709 22.2554C62.0222 22.2554 63.0735 22.2554 64.153 22.2554C64.153 26.2916 64.153 30.3185 64.153 34.3454C64.1624 34.3735 64.1624 34.4017 64.1624 34.4392Z" fill="white"/>
<path d="M53.0871 34.6273C52.8524 34.6273 52.6178 34.6367 52.3831 34.6273C51.7354 34.5804 51.1253 34.3927 50.5058 34.1768C50.0365 34.0172 49.6704 33.7074 49.2386 33.5009C48.9851 33.1255 48.6003 32.872 48.3469 32.4872C48.2436 32.3276 48.1873 32.1211 48.0183 31.9991C47.9057 31.5767 47.671 31.2106 47.5865 30.7788C47.5021 30.394 47.38 29.9997 47.38 29.6149C47.38 28.7231 47.2674 27.8314 47.4457 26.9491C47.5021 26.6581 47.549 26.3765 47.6335 26.0949C47.6804 25.9447 47.7837 25.7945 47.7367 25.6255C47.7555 25.6255 47.7837 25.6255 47.7837 25.6255C47.9526 25.2125 48.084 24.7901 48.3938 24.4522C48.4126 24.4241 48.3938 24.3583 48.3938 24.3208C48.4595 24.1988 48.5815 24.1331 48.6566 24.0204C48.7411 23.889 48.8725 23.7951 48.9851 23.6825C49.4826 23.185 50.0458 22.7908 50.7029 22.528C51.1347 22.3496 51.5759 22.2276 52.0452 22.1525C52.43 22.0868 52.7961 22.0774 53.181 22.0774C53.181 22.1056 53.181 22.1431 53.181 22.1713C52.6553 22.3027 52.1672 22.4998 51.8105 22.9316C51.5946 23.1944 51.4163 23.476 51.2943 23.7951C51.191 24.0674 51.0878 24.3396 51.022 24.6212C50.9563 24.8934 50.947 25.175 50.8249 25.4284C50.8155 25.4378 50.8249 25.4566 50.8249 25.4754C50.8812 25.9165 50.7029 26.3483 50.7217 26.7989C50.7498 27.6061 50.7498 28.4228 50.7217 29.23C50.7029 29.8965 50.7311 30.5535 50.8343 31.2012C50.9282 31.802 51.0314 32.4121 51.2943 32.9753C51.4632 33.3414 51.6697 33.6699 51.9607 33.9703C52.2705 34.2988 52.6553 34.4678 53.0777 34.5616C53.0871 34.5616 53.0871 34.5898 53.0871 34.6273Z" fill="white"/>
<path d="M54.3077 34.4395C54.7301 34.2893 54.8239 33.942 54.8803 33.5384C55.0586 32.1304 54.9084 30.7224 54.9835 29.2769C55.4716 29.2769 55.9597 29.2769 56.4572 29.2769C56.9547 29.2769 57.4522 29.2769 57.9591 29.2769C57.9591 30.9946 57.9591 32.6936 57.9591 34.4114C57.8652 34.5052 57.8464 34.2612 57.7432 34.3456C57.5555 34.1579 57.3489 34.0265 57.0673 34.064C56.8327 34.1016 56.5886 34.0453 56.3446 34.1298C55.9128 34.2706 55.4528 34.3175 55.0211 34.4489C54.777 34.524 54.5517 34.5334 54.3077 34.5334C54.3077 34.4958 54.3077 34.4677 54.3077 34.4395Z" fill="white"/>
<path d="M65.1948 34.3451C65.9364 34.27 66.631 34.1011 67.2317 33.5942C67.7011 33.1906 68.0484 32.7025 68.3863 32.205C68.7054 31.7263 69.0058 31.2194 69.2311 30.6843C69.2592 30.6092 69.2968 30.5999 69.3625 30.5999C69.4564 30.9378 69.4376 31.4916 69.3531 31.8483C69.2499 32.2801 69.3719 32.7212 69.2592 33.1624C69.156 33.5566 69.3062 34.0166 69.0997 34.4484C67.8231 34.4484 66.509 34.4484 65.2042 34.4484C65.1948 34.4014 65.1948 34.3733 65.1948 34.3451Z" fill="white"/>
<path d="M75.8959 34.3462C76.5342 34.3181 77.1443 34.1679 77.7169 33.8863C78.0172 33.7361 78.3176 33.5578 78.5617 33.3231C78.8902 33.004 79.2469 32.6942 79.4909 32.3C79.6974 31.9527 79.8946 31.596 80.026 31.2111C80.0729 31.0703 80.1198 30.9577 80.2888 30.7981C80.3357 31.2017 80.3076 31.5396 80.3076 31.8682C80.1574 31.9902 80.2231 32.1592 80.2231 32.3C80.2137 33.004 80.2231 33.708 80.2231 34.3932C80.1762 34.4401 80.148 34.4683 80.0823 34.534C78.7118 34.534 77.3039 34.534 75.9052 34.534C75.8959 34.4683 75.8959 34.4026 75.8959 34.3462Z" fill="white"/>
<path d="M43.6055 34.4391C42.9485 34.4391 42.2914 34.4391 41.6343 34.4391C41.6343 34.4109 41.6343 34.3734 41.6343 34.3452C41.9441 34.3922 42.2351 34.2232 42.5448 34.2326C42.5542 34.2326 42.5636 34.1857 42.573 34.1575C42.7889 34.1763 42.9672 34.0824 43.155 33.9979C43.8214 33.6882 44.4316 33.3033 44.8258 32.6556C45.0886 32.4397 45.22 32.1394 45.3984 31.8672C45.4453 31.7827 45.5016 31.7264 45.4829 31.6231C45.6612 31.5574 45.5486 31.3603 45.6612 31.2476C45.7551 31.1632 45.7645 30.9942 45.8208 30.8628C45.8677 30.8722 45.8959 30.8722 45.9522 30.8816C45.9522 31.1538 45.9522 31.426 45.9522 31.7076C45.8677 31.6982 45.8583 31.7639 45.8583 31.8296C45.8583 32.1957 45.8583 32.5618 45.8583 32.9279C45.8583 33.4253 45.8583 33.9135 45.8583 34.4297C45.1543 34.4297 44.4691 34.4297 43.7933 34.4297C43.7276 34.4391 43.6619 34.4391 43.6055 34.4391Z" fill="white"/>
<path d="M54.3077 22.1444C54.8709 22.0974 55.3965 22.257 55.941 22.3978C56.2976 22.4823 56.6731 22.6043 57.0673 22.5104C57.18 22.4729 57.2082 22.3039 57.4053 22.3415C57.4053 22.5292 57.4147 22.7263 57.4053 22.9234C57.3865 23.7682 57.5742 24.613 57.4991 25.4672C57.4898 25.5705 57.4991 25.6831 57.4991 25.777C57.4053 25.8145 57.3583 25.8239 57.3114 25.7207C56.9453 24.951 56.4666 24.247 55.9691 23.5523C55.6124 23.0549 55.1525 22.7169 54.6738 22.3696C54.5705 22.2945 54.4109 22.3415 54.3077 22.2382C54.3077 22.2007 54.3077 22.1725 54.3077 22.1444Z" fill="white"/>
<path d="M29.7141 30.1223C29.7141 30.188 29.7141 30.2443 29.7141 30.31C28.522 30.31 27.3393 30.31 26.1472 30.31C26.166 30.235 26.1003 30.1317 26.2411 30.1223C27.3956 30.1223 28.5502 30.1223 29.7141 30.1223Z" fill="white"/>
<path d="M75.3799 34.5704C75.7843 34.5704 76.112 34.5116 76.112 34.439C76.112 34.3665 75.7843 34.3076 75.3799 34.3076C74.9755 34.3076 74.6477 34.3665 74.6477 34.439C74.6477 34.5116 74.9755 34.5704 75.3799 34.5704Z" fill="white"/>
<path d="M54.3061 34.4394C54.3061 34.4676 54.3061 34.5051 54.3061 34.5333C54.3061 34.5521 54.3061 34.5802 54.3061 34.5802C53.9119 34.6272 53.527 34.7774 53.1234 34.7023C53.1046 34.7023 53.1046 34.6553 53.0859 34.6272C53.0859 34.599 53.0859 34.5615 53.0859 34.5333C53.2267 34.5333 53.3675 34.5333 53.5083 34.5333C53.6491 34.5333 53.7899 34.5145 53.9307 34.5333C54.0715 34.5615 54.156 34.3925 54.3061 34.4394Z" fill="white"/>
<path d="M54.3073 22.1434C54.3073 22.1716 54.3073 22.2091 54.3073 22.2373C54.1008 22.2842 53.9413 22.1152 53.7441 22.134C53.5564 22.1622 53.3687 22.1434 53.1809 22.1434C53.1809 22.1152 53.1809 22.0777 53.1809 22.0495C53.2091 21.8712 53.3781 21.9369 53.4344 21.9651C53.6784 22.0871 53.9319 22.0401 54.1853 22.0495C54.251 22.0495 54.3073 22.0495 54.3073 22.1434Z" fill="white"/>
<path d="M41.634 34.3462C41.634 34.3744 41.634 34.4119 41.634 34.4401C41.4932 34.3931 41.3993 34.5621 41.2585 34.5339C41.1365 34.5152 41.0145 34.5339 40.8831 34.5339C40.8549 34.5339 40.8174 34.5339 40.7892 34.5339C40.7892 34.4682 40.761 34.4401 40.6953 34.4401C40.6296 34.4401 40.5733 34.4401 40.5076 34.4401C40.5076 34.4119 40.5076 34.3744 40.5076 34.3462C40.8831 34.3462 41.2585 34.3462 41.634 34.3462Z" fill="white"/>
<path d="M64.6789 34.4593C65.0832 34.4593 65.411 34.4299 65.411 34.3936C65.411 34.3573 65.0832 34.3279 64.6789 34.3279C64.2745 34.3279 63.9467 34.3573 63.9467 34.3936C63.9467 34.4299 64.2745 34.4593 64.6789 34.4593Z" fill="white"/>
<path d="M43.6067 34.4392C43.6724 34.4392 43.7287 34.4392 43.7944 34.4392C43.7944 34.4674 43.7944 34.5049 43.7944 34.5331C43.7193 34.5143 43.616 34.58 43.6067 34.4392Z" fill="white"/>
<path d="M40.6972 34.4392C40.7629 34.4392 40.791 34.4674 40.791 34.5331C40.7253 34.5331 40.6878 34.5049 40.6972 34.4392Z" fill="white"/>
</svg>
