<svg width="117" height="84" viewBox="0 0 117 84" fill="none" xmlns="http://www.w3.org/2000/svg">
<path d="M42.1318 0C42.2405 0.367053 42.7299 0.489404 42.7571 0.92443C42.7571 8.65973 42.7571 16.395 42.7571 24.1032C42.526 24.5246 42.1454 24.4158 41.8055 24.4158C41.4113 24.0352 41.2617 23.5866 41.2617 23.0292C41.2753 15.6745 41.2753 8.31987 41.2753 0.978808C41.2753 0.638944 41.2481 0.285486 41.4928 0C41.6967 0 41.9143 0 42.1318 0Z" fill="#CBB894"/>
<path d="M57.439 3.03063C57.7924 2.97625 58.1323 2.92187 58.4042 3.26173C58.6217 4.13178 58.309 4.92027 57.9963 5.70875C57.6429 6.5924 57.2622 7.47605 56.936 8.37329C56.7184 8.95785 56.4058 9.50163 56.1747 10.0862C55.6988 11.2417 55.1415 12.3701 54.6928 13.5392C54.1627 14.9259 53.415 16.2309 53.0751 17.6856C52.5993 18.1478 52.5585 18.8275 52.2594 19.3849C51.9195 19.983 51.6205 20.6492 51.4573 21.2881C51.2806 21.9814 50.6688 22.4844 50.7368 23.2457C50.2746 23.8983 49.9755 24.646 49.7036 25.3801C49.5677 25.7471 49.2958 25.9103 49.0919 26.1414C48.82 25.8287 48.5617 25.5432 48.317 25.2441C48.0587 24.6596 48.5753 24.1294 48.7656 23.4904C49.0647 22.4844 49.5677 21.5328 49.8939 20.5268C50.0979 19.9015 50.5057 19.3441 50.7096 18.7323C51.3486 16.8563 52.273 15.1026 52.912 13.2129C53.1023 12.6284 53.4421 12.0846 53.6732 11.5C54.2034 10.1814 54.9104 8.94426 55.2638 7.55761C55.8212 6.94586 55.93 6.11659 56.2834 5.40967C56.6233 4.74354 56.8816 4.02303 57.1807 3.32971C57.2214 3.23454 57.3438 3.13938 57.439 3.03063Z" fill="#CBB894"/>
<path d="M35.6584 25.6266C35.5496 25.7353 35.4816 25.8033 35.3729 25.9121C35.1554 25.9121 34.9106 25.9121 34.598 25.9121C34.1086 24.9332 33.524 23.9544 33.1298 22.9077C32.8851 22.2551 32.5724 21.6434 32.3141 20.9908C31.5936 19.1827 30.6963 17.4426 30.003 15.6346C29.2553 13.6905 28.3037 11.8417 27.7191 9.82969C27.4744 8.98683 27.0122 8.19834 26.6587 7.38267C26.2645 6.47183 26.1557 5.45224 25.5983 4.60938C25.476 4.43265 25.6799 3.73933 25.8974 3.23633C26.8762 3.34508 27.2569 4.14716 27.4744 4.88127C27.6783 5.60178 28.0997 6.19994 28.3173 6.89326C28.8067 8.47023 29.5544 9.95204 30.1525 11.4882C30.5604 12.5622 31.0634 13.609 31.5528 14.6558C31.9334 15.4578 32.1917 16.3279 32.5588 17.13C32.9258 17.9456 33.1841 18.8157 33.5784 19.5906C34.2037 20.8005 34.598 22.1056 35.1146 23.3563C35.4136 24.0768 35.8079 24.8109 35.6584 25.6266Z" fill="#CBB894"/>
<path d="M81.013 57.56C80.9994 57.8863 81.0945 58.2397 80.6867 58.4709C80.0206 58.5932 79.3816 58.3349 78.7019 58.0902C76.3364 57.2202 74.1205 56.0238 71.7143 55.2897C70.8578 54.6916 69.8518 54.4197 68.9002 54.0526C67.0513 53.3457 65.2704 52.4621 63.3808 51.8503C62.8234 51.6736 62.3204 51.3337 61.7494 51.1434C60.8522 50.8171 60.0229 50.3141 59.1393 49.9607C58.5955 49.7431 58.2284 49.4305 58.0381 48.8459C58.2012 48.4245 58.6498 48.3973 58.9489 48.1934C60.3084 48.7371 61.6271 49.2945 62.9593 49.7839C63.8566 50.1238 64.7674 50.4637 65.6375 50.8307C66.5755 51.2385 67.5135 51.6736 68.4652 52.027C70.314 52.7339 72.1085 53.604 73.9846 54.2429C74.6235 54.4605 75.2625 54.7731 75.8878 55.0858C77.1113 55.684 78.3892 56.119 79.6127 56.7172C80.075 56.9483 80.6051 57.057 81.013 57.56Z" fill="#CBB894"/>
<path d="M48.6041 58.0762C49.8276 58.2121 49.9635 59.2181 50.2354 59.925C50.4937 60.6048 50.8608 61.2301 51.0647 61.937C51.2958 62.7255 51.69 63.4596 51.9891 64.2209C52.2882 64.9958 52.5601 65.7843 52.9 66.5184C53.2534 67.2661 53.4981 68.0546 53.906 68.7887C54.2322 69.3868 54.5585 70.0394 54.7352 70.6919C54.912 71.3445 55.4829 71.8339 55.4286 72.5544C55.9995 73.1525 56.1219 73.9818 56.4618 74.7023C57.1415 76.1297 57.6717 77.6251 58.2019 79.1206C58.3106 79.4468 58.4738 79.7323 58.6369 80.1401C58.6369 80.3305 58.6369 80.6431 58.6369 81.0102C57.8348 81.0238 57.2774 80.8063 56.8968 80.0314C56.4346 79.0798 56.0131 78.1145 55.6325 77.1221C55.4286 76.5648 55.1295 76.0482 54.912 75.4908C54.3274 73.9546 53.5661 72.4728 52.9815 70.9366C52.4513 69.55 51.8396 68.1905 51.2958 66.8175C50.9151 65.8387 50.4665 64.8735 50.0723 63.8946C49.5285 62.5488 48.9439 61.2165 48.4681 59.8435C48.3322 59.4492 48.237 59.0822 48.4273 58.7695C48.5769 58.5384 48.5089 58.2937 48.6041 58.0762Z" fill="#CBB894"/>
<path d="M72.1888 71.1278C72.1073 71.5492 72.1209 71.5628 71.6858 71.9707C71.1556 72.0794 70.707 71.9163 70.3128 71.522C70.1904 71.3997 70.0545 71.2637 69.9321 71.1414C65.4595 66.6824 60.9869 62.2234 56.5142 57.7507C55.7665 57.003 55.2227 56.0786 54.3799 55.4397C54.3799 55.0998 54.3799 54.8007 54.3799 54.4473C54.7741 54.4473 55.1684 54.4473 55.4675 54.4473C61.0684 60.0346 66.615 65.5676 72.1888 71.1278Z" fill="#CBB894"/>
<path d="M34.6544 58.1156C34.9942 58.0612 35.3477 57.966 35.6468 58.3875C35.7827 59.0536 35.5244 59.6926 35.2661 60.3723C34.7631 61.7045 34.2465 63.0232 33.7027 64.3283C33.3221 65.2663 32.8599 66.2043 32.5064 67.156C31.949 68.6786 31.1877 70.106 30.6983 71.6558C30.5216 72.1995 30.2089 72.7297 29.9778 73.2735C29.434 74.5786 28.7815 75.8565 28.2513 77.1616C27.8842 78.086 27.4628 78.9832 27.0958 79.8941C26.8918 80.3971 26.6607 80.7913 26.0626 80.9409C25.6275 80.4922 25.546 80.0164 25.7499 79.2823C26.1033 78.0588 26.4976 76.8897 27.055 75.7477C27.354 75.1224 27.6531 74.4698 27.857 73.8309C28.061 73.1648 28.5096 72.6074 28.6319 71.8869C28.7271 71.3703 29.0534 70.8537 29.2981 70.3507C29.9098 69.1 30.3585 67.7813 30.9566 66.5442C31.4188 65.5926 31.7995 64.6002 32.2073 63.635C32.6016 62.697 32.9686 61.7317 33.3629 60.7937C33.7435 59.9101 33.9882 58.9041 34.6544 58.1156Z" fill="#CBB894"/>
<path d="M25.7773 34.5552C25.7773 34.9358 25.7773 35.3165 25.7773 35.7379C25.3831 35.7379 25.0024 35.7379 24.5946 35.7379C24.0508 35.3573 23.3439 35.2349 22.7185 34.9222C22.1884 34.6639 21.6038 34.5008 21.06 34.2697C19.4694 33.6172 17.9196 32.8967 16.2883 32.3257C15.2959 31.9722 14.3715 31.4284 13.379 31.075C12.2643 30.6671 11.1767 30.1641 10.0756 29.7427C9.4366 29.498 8.79766 29.1989 8.17231 28.9134C6.55455 28.1657 4.85522 27.5812 3.26465 26.6568C3.26465 26.4121 3.26465 26.0994 3.26465 25.8139C3.78124 25.2837 4.35222 25.5692 4.86881 25.7323C6.33703 26.2353 7.77806 26.8335 9.1919 27.4588C10.8776 28.2065 12.5634 28.9678 14.2627 29.7019C15.8669 30.3953 17.4846 31.075 19.0888 31.7547C20.2987 32.2713 21.5494 32.7063 22.7593 33.2365C23.7653 33.6715 24.9073 33.8075 25.7773 34.5552Z" fill="#CBB894"/>
<path d="M3.25066 58.1833C3.1555 57.1501 3.98477 56.7967 4.6781 56.62C5.33064 56.4432 5.88802 56.0762 6.52696 55.8723C7.12513 55.6819 7.75048 55.3557 8.34864 55.111C9.44981 54.6623 10.5238 54.1457 11.6657 53.7787C12.2911 53.5748 12.8621 53.2077 13.4602 52.9358C14.7245 52.3649 16.016 51.8619 17.2939 51.2909C18.3135 50.8423 19.3875 50.4616 20.4207 50.0266C21.6985 49.4828 22.99 48.9798 24.3087 48.5448C24.7573 48.3952 25.2196 48.3137 25.7361 48.1777C25.7361 48.6264 25.7361 49.0206 25.7361 49.4692C25.1244 50.0946 24.2136 50.2033 23.4387 50.5432C22.7861 50.8423 22.12 51.1414 21.4403 51.4132C19.7681 52.0522 18.1504 52.7999 16.5054 53.5068C15.0372 54.105 13.5826 54.7575 12.1008 55.3285C9.9664 56.1441 7.91361 57.1501 5.73848 57.8707C5.39861 57.9794 5.05875 58.1561 4.74607 58.3193C4.1751 58.6048 3.72647 58.4688 3.25066 58.1833Z" fill="#CBB894"/>
<path d="M29.8423 29.1977C29.6656 29.4016 29.4888 29.6191 29.3937 29.7414C28.8907 29.9454 28.6732 29.3472 28.3061 29.6191C25.4376 26.7642 22.5148 24.0181 19.8095 21.0817C17.3081 18.3628 14.5755 15.8614 12.0605 13.1561C11.9382 12.7211 12.1693 12.3676 12.3596 12.0141C12.7675 11.9326 13.0801 12.1773 13.3792 12.3812C13.556 12.5035 13.6919 12.6803 13.8414 12.8298C18.8986 17.8734 23.9694 22.9306 29.0266 27.9742C29.3665 28.314 29.7607 28.6131 29.8423 29.1977Z" fill="#CBB894"/>
<path d="M70.8299 12.2344C71.1426 12.2344 71.4281 12.2344 71.6864 12.2344C71.7272 12.2752 71.768 12.3023 71.768 12.3295C71.768 12.683 71.768 13.0365 71.768 13.3899C66.5748 18.5694 61.3817 23.749 56.2021 28.9149C55.8895 29.2276 55.604 29.5946 55.1554 29.7578C54.8427 29.7578 54.53 29.7578 54.2037 29.7578C54.0406 29.1868 54.2717 28.7518 54.6252 28.3575C54.6523 28.3303 54.6795 28.3031 54.7067 28.276C56.2701 26.8757 57.5208 25.19 59.0298 23.7354C60.5388 22.2672 61.9391 20.6766 63.5296 19.29C66.0718 17.0876 68.3013 14.5454 70.8299 12.2344Z" fill="#CBB894"/>
<path d="M58.0078 34.8814C58.47 34.1745 59.2449 33.9842 59.8975 33.6715C60.5772 33.3452 61.2977 33.0598 62.0046 32.8287C62.698 32.5975 63.3641 32.3121 64.0438 32.0402C65.58 31.4284 67.1026 30.7895 68.598 30.0826C69.4681 29.6747 70.3653 29.3349 71.2354 28.9406C72.0782 28.56 72.9483 28.2201 73.8048 27.9074C75.0147 27.4588 76.1702 26.8742 77.3937 26.4664C78.0327 26.2489 78.6036 25.9362 79.2154 25.6915C79.7728 25.474 80.2486 25.4468 80.7652 25.7867C80.7652 26.0042 80.7652 26.2489 80.7652 26.5208C80.099 26.9966 79.3242 27.3093 78.5629 27.6355C78.0735 27.853 77.584 28.0298 77.0946 28.2201C75.776 28.7503 74.4709 29.3077 73.1522 29.8514C71.9015 30.368 70.6372 30.871 69.4273 31.4964C68.8155 31.8091 68.163 32.1217 67.524 32.3121C66.8715 32.5024 66.3277 32.883 65.6752 33.0598C65.1042 33.2093 64.5332 33.5764 63.9622 33.8211C62.4804 34.46 60.985 35.0854 59.4896 35.7107C58.8643 35.969 58.2253 35.6291 58.0078 34.8814Z" fill="#CBB894"/>
<path d="M13.0532 72.4725C12.7677 72.187 12.5366 71.9559 12.2783 71.7112C12.2783 71.3577 12.2783 70.9771 12.2783 70.5828C17.7434 65.1314 23.2084 59.68 28.6598 54.2422C28.9997 54.2422 29.3124 54.2422 29.6386 54.2422C29.6386 54.6228 29.6386 54.9763 29.6386 55.4113C29.3668 55.6832 29.0405 56.0095 28.7142 56.3357C23.7794 61.257 18.8445 66.1782 13.9097 71.0994C13.5426 71.4801 13.162 71.8335 13.0532 72.4725Z" fill="#CBB894"/>
<path d="M83.637 41.3535C84.1128 41.639 83.9905 41.9789 84.0177 42.3323C83.8545 42.4683 83.6642 42.6314 83.4059 42.8353C75.7521 42.8353 68.0032 42.8353 60.3766 42.8353C59.8736 42.645 59.5338 42.4275 59.2891 42.0468C59.3434 41.7206 59.6561 41.571 59.86 41.3535C67.8129 41.3535 75.7521 41.3535 83.637 41.3535Z" fill="#CBB894"/>
<path d="M0.735495 42.8199C0.531576 42.6704 0.382035 42.3577 0.0421694 42.3441C-0.134561 41.8547 0.286872 41.6644 0.517981 41.3789C8.41645 41.3789 16.3149 41.3789 24.1454 41.3789C24.295 41.5013 24.4037 41.5964 24.4989 41.6644C24.5533 42.1538 24.2406 42.4529 24.091 42.8199C16.2877 42.8199 8.5388 42.8199 0.735495 42.8199Z" fill="#CBB894"/>
<path d="M42.768 83.2252C42.5097 83.4971 42.265 83.7418 42.0203 84.0001C41.7892 83.769 41.5581 83.5379 41.2998 83.2796C41.2998 75.5715 41.2998 67.8362 41.2998 60.0873C41.4629 59.9105 41.6397 59.7338 41.8028 59.5707C42.2106 59.5435 42.4553 59.6386 42.5777 60.0873C42.7001 60.5223 42.7816 60.9437 42.7816 61.3923C42.768 68.679 42.768 75.9657 42.768 83.2252Z" fill="#CBB894"/>
<path d="M73.712 48.5459C73.1818 49.0761 72.57 48.913 72.0806 48.7906C71.7815 48.7091 71.4689 48.6275 71.1834 48.6683C70.8299 48.7227 70.6396 48.41 70.2997 48.4236C69.2665 48.4644 68.3013 48.0022 67.2681 48.0022C66.8875 47.5399 66.2213 48.0429 65.8407 47.5671C65.3377 47.6759 64.9027 47.3768 64.4269 47.3632C63.8967 47.3632 63.448 46.969 62.9043 47.1321C62.2109 46.6699 61.3545 46.7651 60.5932 46.5204C59.5736 46.1941 59.5464 46.2757 59.0842 45.4328C59.0842 45.392 59.0706 45.3512 59.0842 45.324C59.2609 45.1473 59.4376 44.9706 59.6415 44.7938C60.634 44.6715 61.5584 45.0793 62.4964 45.3376C62.945 45.46 63.4888 45.2289 63.8559 45.6503C64.9299 45.5687 65.9223 46.1669 66.9962 46.0853C67.5536 46.4796 68.2469 46.3028 68.8723 46.466C69.4433 46.6155 70.0686 46.7379 70.694 46.7651C71.2649 46.7922 71.8495 47.0369 72.4341 47.1865C72.9507 47.3088 73.5488 47.6079 73.5217 48.3692C73.5352 48.41 73.6304 48.4644 73.712 48.5459Z" fill="#CBB894"/>
<path d="M24.4848 69.02C24.1993 68.6937 23.9546 68.4082 23.6963 68.1091C26.1977 64.3434 28.4544 60.3331 31.2685 56.581C31.4316 56.581 31.6355 56.581 31.8395 56.581C32.0298 56.5946 32.0706 56.3091 32.4104 56.4042C32.4376 56.4586 32.5192 56.6217 32.6823 56.948C32.5464 57.5326 32.1385 58.2667 31.6763 58.9464C29.5828 62.1139 27.4212 65.2407 25.3684 68.4354C25.1645 68.7345 24.9198 69.1151 24.4848 69.02Z" fill="#CBB894"/>
<path d="M26.456 32.5707C24.9606 31.5919 23.6691 30.6811 22.3097 29.879C21.997 29.7023 21.7931 29.2944 21.3716 29.3216C20.6239 28.5603 19.6451 28.1389 18.7615 27.5951C17.8778 27.0378 17.0893 26.3716 16.1377 25.9366C15.7707 25.7735 15.5803 25.42 15.2812 25.2025C15.2812 24.8218 15.2812 24.4684 15.2812 24.0605C15.6619 24.0605 16.0425 24.0605 16.4912 24.0605C16.8038 24.2917 17.1573 24.6587 17.5787 24.849C18.544 25.2705 19.346 25.9366 20.2161 26.494C22.2281 27.7719 24.1857 29.1449 26.1977 30.4228C26.8095 30.817 27.1901 31.4152 27.7611 31.8094C27.7339 32.2173 27.3805 32.326 27.2173 32.5843C26.9046 32.5707 26.6192 32.5707 26.456 32.5707Z" fill="#CBB894"/>
<path d="M59.8863 39.2209C59.6144 38.949 59.2201 38.7722 59.3153 38.2964C59.5464 37.7391 60.1446 37.6031 60.566 37.5351C61.9662 37.3312 63.2713 36.6787 64.6988 36.6379C65.1202 36.2844 65.6368 36.4884 66.1126 36.4204C66.8739 36.298 67.676 36.2301 68.3965 35.9718C69.2665 35.6591 70.1774 35.6455 71.0203 35.3328C71.6728 35.1017 72.3117 35.1697 72.9507 35.1289C73.1546 35.428 73.6168 35.5367 73.4809 36.0126C73.2906 36.6515 72.6652 36.6923 72.1894 36.8282C71.5233 37.0321 70.8299 37.1953 70.1366 37.3176C69.5248 37.4264 68.8723 37.4944 68.2741 37.7119C67.7032 37.9158 67.0914 37.9838 66.5204 38.0925C65.9631 38.1877 65.3921 38.3508 64.7939 38.3916C64.2365 38.4324 63.6656 38.514 63.1218 38.7451C62.6867 38.9354 62.1294 38.5955 61.7351 39.0034C61.0826 38.8538 60.5116 39.2345 59.8863 39.2209Z" fill="#CBB894"/>
<path d="M10.2393 35.7656C10.919 35.0587 11.6667 35.0179 12.4688 35.249C13.2709 35.4801 14.0865 35.6704 14.9294 35.82C15.949 36.0103 17.023 35.9831 18.0018 36.4181C18.9534 36.2686 19.8099 36.7444 20.7207 36.8803C21.8355 37.0435 22.923 37.4377 24.0242 37.696C24.3777 37.7776 24.4728 38.1038 24.7311 38.2262C24.6088 38.8108 24.6088 38.8108 23.7795 39.2322C23.3988 39.0827 22.9366 39.0691 22.5288 38.9603C21.5772 38.7292 20.5848 38.77 19.6603 38.3757C19.3069 38.2262 18.8582 38.2126 18.464 38.1718C17.1725 38.0359 15.9218 37.696 14.6575 37.4649C13.6651 37.2882 12.6727 37.0707 11.6939 36.8531C11.0957 36.7172 10.7015 36.2958 10.2393 35.7656Z" fill="#CBB894"/>
<path d="M23.6289 15.771C23.9008 15.4991 24.1591 15.2544 24.431 14.9961C24.5533 14.9961 24.6893 14.9961 24.8252 14.9961C25.1787 15.5671 25.4642 16.1924 25.9128 16.6818C26.375 17.1984 26.7013 17.783 27.1091 18.3404C27.884 19.4007 28.6453 20.4611 29.3115 21.603C30.1135 22.9625 31.0788 24.1996 31.8536 25.5727C32.1391 26.0893 32.3974 26.633 32.7101 27.0137C32.6149 27.5439 32.3702 27.6798 32.0984 27.6526C30.6845 27.1088 30.2903 25.763 29.5154 24.7706C28.455 23.4247 27.5442 21.9429 26.5789 20.5291C25.5186 19.0337 24.3766 17.5791 23.6289 15.771Z" fill="#CBB894"/>
<path d="M69.1973 59.2589C68.8847 59.5852 68.6128 59.8571 68.2049 60.2649C67.7971 60.3601 67.2805 59.993 66.8591 59.6668C65.5948 58.7016 64.2489 57.8587 62.9166 57.0022C61.4756 56.0778 60.0346 55.1534 58.6071 54.2154C58.4304 54.1066 58.2945 53.9299 58.1449 53.7803C57.8051 53.4405 57.4924 53.0734 57.003 52.9239C56.6087 52.8015 56.4048 52.5024 56.3232 52.3121C56.3368 51.7683 56.7175 51.714 56.7855 51.4829C57.2205 51.2925 57.6147 51.4557 57.8866 51.6596C59.6267 52.8695 61.462 53.9571 63.1749 55.1942C65.0646 56.5672 67.0766 57.7499 68.9526 59.1366C68.9934 59.191 69.1294 59.1638 69.1973 59.2589Z" fill="#CBB894"/>
<path d="M59.805 69.0036C58.8534 68.7589 58.3911 67.9569 57.8881 67.2363C56.8414 65.7545 55.8489 64.2319 54.8565 62.7229C53.769 61.078 52.695 59.4059 51.6074 57.7473C51.6074 57.3803 51.6074 56.9996 51.6074 56.5918C51.8793 56.5918 52.1104 56.5918 52.3551 56.5918C53.1708 57.3395 53.769 58.2503 54.3807 59.1748C54.9789 60.072 55.6722 60.9149 56.284 61.8121C57.3579 63.3619 58.4183 64.9117 59.4515 66.4886C59.7778 66.978 59.8458 67.6034 60.1448 68.1336C60.2944 68.4055 60.24 68.8269 59.805 69.0036Z" fill="#CBB894"/>
<path d="M68.1252 23.75C68.4107 23.9267 68.6282 24.0627 68.8593 24.1986C69.0088 24.2938 69.1584 24.3754 69.2263 24.4161C69.1176 25.1095 68.601 25.1502 68.3019 25.3678C66.5482 26.6185 64.7673 27.8284 62.9592 29.0111C61.2191 30.153 59.4654 31.2814 57.7525 32.4777C57.5214 32.6408 57.2495 32.8448 56.8008 32.7496C56.6921 32.6001 56.529 32.3825 56.2979 32.0699C56.2979 32.0427 56.2979 31.866 56.2979 31.6077C56.7737 30.9959 57.535 30.6424 58.2011 30.221C60.5666 28.7664 62.864 27.1894 65.1887 25.6668C66.1539 25.0551 67.0648 24.3482 68.1252 23.75Z" fill="#CBB894"/>
<path d="M52.6921 27.4169C52.2299 27.4169 51.9444 27.4169 51.6182 27.4169C51.6182 27.0362 51.6182 26.6556 51.6182 26.2749C52.1619 25.4593 52.7329 24.6164 53.2903 23.7735C54.5002 21.9655 55.7237 20.1438 56.9337 18.3221C57.2463 17.8463 57.5454 17.3705 57.8173 16.8811C58.1708 16.2558 58.6194 15.6712 59.2447 15.209C59.7477 15.1002 59.9245 15.5216 60.1692 15.7799C60.2236 16.2965 59.9381 16.6364 59.7341 16.9491C57.4502 20.4837 55.1664 24.0182 52.6921 27.4169Z" fill="#CBB894"/>
<path d="M47.5699 10.5078C47.9098 10.5078 48.1953 10.5078 48.4536 10.5078C48.6439 10.6981 48.8206 10.8749 48.9973 11.0516C49.0789 11.6362 48.6575 12.1663 48.7662 12.7645C48.3448 13.1588 48.7798 13.7977 48.3584 14.1919C48.372 14.8445 48.1001 15.4426 48.0185 16.0816C47.937 16.7205 47.8146 17.3595 47.6787 17.9848C47.4883 18.8277 47.298 19.6705 47.0941 20.5134C46.8902 21.3563 46.7542 22.2127 46.4415 23.0284C46.3328 23.3003 46.4144 23.5994 46.2376 23.912C45.9385 24.4422 46.0065 24.483 45.5715 24.8501C45.1365 24.7957 45.1908 24.3199 44.9189 24.1024C45.0005 23.7489 44.8102 23.3819 45.1093 23.0148C45.2996 22.7837 45.1093 22.3759 45.2452 22.0088C45.4491 21.4922 45.4491 20.8805 45.5307 20.3095C45.5987 19.8065 45.9385 19.3307 45.7754 18.8005C46.2376 18.4606 45.7346 17.8217 46.1833 17.4682C46.0881 16.8701 46.4008 16.3399 46.4415 15.7553C46.4823 15.1979 46.6047 14.6406 46.7678 14.0832C46.9174 13.5666 46.931 13.0092 47.0669 12.4926C47.2572 11.8673 47.2164 11.1739 47.5699 10.5078Z" fill="#CBB894"/>
<path d="M35.2516 72.9892C35.2109 72.0647 35.4012 71.2491 35.6187 70.4062C35.741 69.9576 35.8362 69.4818 35.877 69.0196C35.9722 68.0679 36.3936 67.1707 36.312 66.2055C36.7878 65.0771 36.6655 63.8128 37.1549 62.6981C37.0733 61.5833 37.6307 60.5637 37.6035 59.4082C38.0521 59.4082 38.5008 59.4082 39.0581 59.4082C39.3844 59.5306 39.398 59.9384 39.2892 60.2511C38.8542 61.5697 38.7047 62.9428 38.4056 64.2751C38.2832 64.8188 38.1609 65.3898 38.0521 65.9336C37.9434 66.491 37.6579 67.0483 37.7938 67.6601C37.3044 68.938 37.2908 70.3518 36.7606 71.6161C36.6383 71.9016 36.7063 72.2007 36.5839 72.4998C36.4344 72.9076 36.244 73.2203 35.9314 73.4922C35.6187 73.4922 35.5235 73.1659 35.2516 72.9892Z" fill="#CBB894"/>
<path d="M15.294 59.9244C15.1444 59.571 15.7426 59.4078 15.4435 59.0816C16.3136 58.062 17.4555 57.491 18.5023 56.7841C20.324 55.5606 22.1456 54.3506 23.9673 53.1271C24.7558 52.5969 25.5307 52.0396 26.4008 51.4414C26.6047 51.4414 26.9173 51.4414 27.1892 51.4414C27.5155 51.5909 27.4475 51.958 27.6786 52.1211C27.7194 52.1755 27.6786 52.2027 27.6243 52.2707C26.8222 53.1951 25.6938 53.6709 24.7558 54.4186C23.4507 55.4518 21.9825 56.2403 20.6638 57.2599C19.5763 58.1027 18.3799 58.8233 17.2244 59.5574C16.6398 59.9244 16.0009 60.1827 15.294 59.9244Z" fill="#CBB894"/>
<path d="M35.6335 10.4824C35.8918 10.6592 36.218 10.6863 36.5035 11.0126C36.6803 12.0322 36.9658 13.1334 37.2105 14.2481C37.4144 15.1182 37.5367 16.0154 37.7814 16.8991C37.931 17.4292 37.9989 18.0274 38.1213 18.5848C38.2436 19.1422 38.3116 19.7131 38.4748 20.2569C38.801 21.3445 38.8962 22.4864 39.3176 23.5468C39.3856 23.6963 39.3312 23.9002 39.3312 23.9546C38.9913 24.2809 38.7195 24.5392 38.4068 24.8383C37.9989 24.7159 37.9038 24.2265 37.6047 23.8459C37.7814 23.2885 37.3328 22.7583 37.3872 22.1737C36.9114 21.8339 37.4416 21.1813 36.9657 20.8415C37.0745 20.3385 36.8162 19.8899 36.7075 19.4412C36.5035 18.5712 36.3404 17.6739 36.1637 16.7903C35.9733 15.9067 35.6743 15.0094 35.6879 14.085C35.6879 13.7315 35.3752 13.4868 35.4567 13.1062C35.5111 12.8071 35.348 12.508 35.2936 12.2225C35.1849 11.6651 35.1305 11.0398 35.6335 10.4824Z" fill="#CBB894"/>
<path d="M10.333 48.3147C10.333 48.1651 10.333 48.0292 10.333 47.8796C10.7001 47.5262 11.1351 47.431 11.6109 47.3223C12.5897 47.0912 13.5957 46.928 14.5881 46.7513C15.4854 46.5882 16.3962 46.4114 17.2934 46.2483C18.0683 46.0988 18.8704 45.922 19.6453 45.7317C20.461 45.5414 21.2903 45.3375 22.1195 45.1879C22.8129 45.0656 23.4654 44.7121 24.1451 44.7801C24.417 45.052 24.6753 45.3103 24.9744 45.5958C24.6481 46.1395 24.1995 46.5474 23.5198 46.4658C23.1935 46.425 23.0168 46.6697 22.7449 46.6969C21.4262 46.8329 20.1347 47.1863 18.8296 47.3766C17.9868 47.499 17.1031 47.6078 16.2739 47.934C15.9068 48.0836 15.431 47.8389 15.0911 48.1923C14.2483 48.0972 13.5141 48.6137 12.6849 48.6409C12.4402 48.6545 12.1819 48.9808 11.9236 48.8313C11.5021 48.5866 10.972 48.7361 10.5777 48.4234C10.5233 48.3826 10.3874 48.4098 10.333 48.3147Z" fill="#CBB894"/>
<path d="M48.7782 73.4779C48.3976 73.4779 48.0985 73.4779 47.7994 73.4779C47.4052 73.1924 47.31 72.7166 47.31 72.3767C47.3236 71.765 47.1333 71.2076 47.0109 70.6502C46.9022 70.1064 46.9565 69.4947 46.6167 69.0053C46.6574 67.6186 46.0457 66.3951 45.6243 65.1308C45.5563 64.9133 45.5699 64.723 45.5427 64.5191C45.4747 64.0704 45.6786 63.5946 45.4067 63.1868C45.1756 62.8333 45.3796 62.4119 45.162 61.9905C44.9581 61.5962 45.0805 60.9981 44.9037 60.4951C44.7542 60.0872 45.2436 59.7746 45.1077 59.2852C45.9233 59.5435 46.2768 59.9649 46.4263 60.7398C46.6167 61.7594 46.739 62.7926 47.0245 63.7985C47.2828 64.6686 47.4052 65.5658 47.7042 66.4087C47.8402 66.7894 47.7722 67.1836 47.9217 67.4963C48.0849 67.8361 48.0169 68.176 48.1257 68.4887C48.4519 69.5219 48.248 70.6366 48.7102 71.6698C48.9549 72.1592 48.7782 72.8117 48.7782 73.4779Z" fill="#CBB894"/>
<path d="M108.426 50.0139C106.904 50.0139 105.395 50.0139 103.872 50.0139C103.777 49.4566 103.736 33.9452 103.832 32.2459C103.845 32.2323 103.872 32.2051 103.886 32.2051C107.692 32.2051 111.499 32.2051 115.319 32.2051C115.401 32.3954 115.36 32.5993 115.36 32.8032C115.401 34.0132 115.577 35.2095 115.496 36.4194C115.482 36.5553 115.536 36.6913 115.441 36.8272C115.278 36.5281 115.088 36.2563 114.979 35.9572C114.68 35.1415 114.136 34.4754 113.606 33.8092C113.076 33.1431 112.328 32.776 111.472 32.5857C111.145 32.5178 110.806 32.5449 110.506 32.4498C110.153 32.341 109.813 32.341 109.473 32.3274C109.133 32.3274 108.807 32.3274 108.44 32.3274C108.44 35.1415 108.44 37.9148 108.44 40.7561C108.78 40.7561 109.147 40.7153 109.487 40.7696C109.84 40.824 110.126 40.6609 110.452 40.5929C110.738 40.5385 111.037 40.3618 111.281 40.1443C111.812 39.6685 112.219 39.1111 112.491 38.4722C112.627 38.1595 112.709 37.8332 112.818 37.5341C112.831 37.6021 112.79 37.4526 112.858 37.507C112.872 37.5205 112.899 37.5341 112.899 37.5613C112.953 38.9208 112.913 43.9644 112.845 44.5489C112.654 44.2906 112.573 43.978 112.505 43.6925C112.383 43.1895 112.111 42.768 111.852 42.333C111.54 41.8028 111.064 41.5309 110.534 41.2726C110.235 41.1367 109.922 41.0823 109.623 41.0279C109.256 40.9736 108.862 41.0143 108.426 41.0143C108.426 43.9236 108.426 46.8192 108.426 49.7149C108.426 49.8236 108.426 49.9188 108.426 50.0139Z" fill="#0E4656"/>
<path d="M65.601 32.477C65.601 32.8576 65.5195 33.2655 65.6146 33.6189C65.8321 34.421 65.6826 35.2095 65.737 36.0116C65.7234 36.2834 65.7778 36.5553 65.6826 36.868C65.5466 36.5961 65.4379 36.365 65.3291 36.1475C65.2612 35.93 65.1388 35.7261 65.0301 35.5357C64.5814 34.7744 64.1872 33.9588 63.4259 33.4286C63.3715 33.2111 63.1404 33.1839 62.9909 33.1023C62.5558 32.8168 62.08 32.5857 61.5226 32.6129C61.4411 32.3546 61.2236 32.5178 61.074 32.477C60.4351 32.3138 59.3203 32.2866 58.6678 32.409C58.6678 32.7896 58.6678 33.1703 58.6678 33.5645C58.6678 34.1491 58.6678 34.7473 58.6678 35.3318C58.6678 36.1883 58.6678 37.0583 58.6678 37.9148C58.6678 38.1459 58.6678 38.3634 58.6678 38.5945C58.6678 39.315 58.6678 40.0355 58.6678 40.7696C59.1844 40.7696 59.6602 40.7696 60.1224 40.7696C60.2312 40.7696 60.3263 40.7425 60.4351 40.7153C61.21 40.4978 61.8217 40.0627 62.2432 39.4102C62.4607 39.0839 62.8141 38.7984 62.7326 38.3226C63.0181 38.2003 62.9501 37.874 63.1404 37.6837C63.1404 37.8468 63.1404 38.0235 63.1404 38.1867C63.1404 40.2802 63.1404 42.3874 63.1404 44.481C63.1404 44.4946 63.1268 44.5217 63.1132 44.5353C63.0996 44.5489 63.086 44.5489 63.0724 44.5625C62.8549 43.7061 62.5558 43.0535 62.0664 42.265C61.5906 41.5173 60.8565 41.2047 60.0408 41.0551C59.6058 40.9736 59.1436 41.0415 58.6678 41.0415C58.6678 42.2786 58.6678 43.5022 58.6678 44.7121C58.6678 45.0791 58.6678 45.4326 58.6678 45.7996C58.6678 46.6153 58.6678 47.431 58.6678 48.2467C58.6678 48.7497 58.6678 49.2391 58.6678 49.7421C58.6678 49.7828 58.6678 49.8372 58.6678 49.878C57.1452 49.878 55.6362 49.878 54.1136 49.878C54.0048 49.2798 53.964 34.7473 54.0592 32.2051C54.6438 32.2051 55.2147 32.2051 55.7993 32.2051C56.2072 32.2051 56.615 32.2051 57.0228 32.2051C58.8309 32.2051 60.6526 32.2051 62.4607 32.2051C63.4667 32.2051 64.4727 32.2051 65.4787 32.2051C65.4923 32.2051 65.5195 32.2187 65.5331 32.2323C65.5467 32.2459 65.5602 32.2595 65.5738 32.2731C65.601 32.341 65.601 32.409 65.601 32.477Z" fill="#0E4656"/>
<path d="M37.8687 43.8976C37.5832 43.9248 37.7328 44.1831 37.6784 44.319C37.2842 45.2978 36.9715 46.2902 36.5908 47.269C36.4957 47.5001 36.55 47.7041 36.5229 47.8264C36.9443 48.9683 37.9095 49.417 38.9699 49.9879C36.9987 49.9879 35.2042 49.9879 33.3281 49.9879C33.4505 49.8792 33.5184 49.7568 33.6 49.7432C34.171 49.6753 34.6196 49.3218 35.0682 49.0363C35.5848 48.6965 35.8839 48.1391 36.0742 47.5681C36.2918 46.9564 36.5093 46.3446 36.7404 45.7328C36.9715 45.1483 37.2026 44.5637 37.3929 43.9656C37.5968 43.3538 37.8279 42.742 38.0455 42.1303C38.3038 41.3962 38.5756 40.6757 38.8611 39.9552C39.3098 38.854 39.5952 37.6849 40.1526 36.6109C40.2206 35.972 40.6828 35.4554 40.8052 34.8436C40.9275 34.2318 41.349 33.7288 41.3761 33.1035C41.6208 32.8044 41.648 32.3966 41.8384 32.0703C42.4501 32.0703 43.0483 32.0703 43.6872 32.0703C43.864 32.5189 44.0679 32.954 44.2174 33.4162C44.3398 33.7696 44.5301 34.1095 44.6253 34.4766C44.7204 34.83 44.87 35.1427 44.9923 35.4825C45.2234 36.1623 45.4681 36.8284 45.7264 37.4945C45.8624 37.848 46.0255 38.1879 46.1343 38.5549C46.243 38.8948 46.3654 39.2346 46.4877 39.5609C46.7596 40.2406 46.9771 40.9476 47.2354 41.6273C47.4801 42.2934 47.752 42.9596 47.9831 43.6257C48.2142 44.319 48.4725 45.0123 48.7308 45.6921C48.9755 46.3446 49.193 46.9971 49.4377 47.6497C49.696 48.3566 49.9679 49.0635 50.2262 49.7704C50.2534 49.8248 50.2262 49.8928 50.2126 49.9879C48.6085 49.9879 47.0043 49.9879 45.373 49.9879C44.9923 49.6617 44.9515 49.1315 44.802 48.6829C44.3126 47.1603 43.6872 45.6921 43.2794 44.1423C43.2386 44.0063 43.157 43.9112 43.0075 43.884C43.0075 43.7888 43.0075 43.7073 43.0075 43.6121C43.0075 43.5033 43.0483 43.3674 43.0075 43.2722C42.5589 42.2934 42.3142 41.2466 41.9335 40.2542C41.5529 39.2482 41.3082 38.2015 40.9547 37.1955C40.8595 36.9236 40.8595 36.5701 40.5877 36.3934C40.4653 36.4206 40.4517 36.4749 40.4245 36.5429C40.1254 37.2498 39.9079 37.9975 39.636 38.7316C39.1738 39.9416 38.7524 41.1787 38.3309 42.4022C38.195 42.7964 37.9775 43.1771 37.9911 43.6121C37.8008 43.6393 37.8823 43.7888 37.8687 43.8976Z" fill="#0E4656"/>
<path d="M92.9267 49.8782C91.4041 49.8782 89.8951 49.8782 88.3725 49.8782C88.2502 49.2664 88.2094 37.3168 88.3045 32.2324C89.8271 32.2324 91.3497 32.2324 92.9131 32.2324C92.9131 38.0781 92.9131 43.9101 92.9131 49.7422C92.9267 49.783 92.9267 49.8238 92.9267 49.8782Z" fill="#0E4656"/>
<path d="M76.8857 50.1505C76.5458 50.1505 76.206 50.1641 75.8661 50.1505C74.9281 50.0826 74.0444 49.8107 73.1472 49.498C72.4674 49.2669 71.9372 48.8183 71.3119 48.5192C70.9448 47.9754 70.3875 47.6083 70.0204 47.051C69.8709 46.8199 69.7893 46.5208 69.5446 46.3441C69.3815 45.7323 69.0416 45.2021 68.9192 44.5768C68.7969 44.0194 68.6202 43.4484 68.6202 42.891C68.6202 41.5996 68.457 40.3081 68.7153 39.0302C68.7969 38.6088 68.8649 38.2009 68.9872 37.7931C69.0552 37.5756 69.2047 37.3581 69.1368 37.1134C69.1639 37.1134 69.2047 37.1134 69.2047 37.1134C69.4494 36.5152 69.6398 35.9034 70.0884 35.414C70.1156 35.3732 70.0884 35.2781 70.0884 35.2237C70.1835 35.047 70.3603 34.9518 70.469 34.7887C70.5914 34.5984 70.7817 34.4624 70.9448 34.2993C71.6653 33.5788 72.481 33.0078 73.4326 32.6271C74.058 32.3689 74.6969 32.1921 75.3767 32.0834C75.9341 31.9882 76.4642 31.9746 77.0216 31.9746C77.0216 32.0154 77.0216 32.0698 77.0216 32.1106C76.2603 32.3009 75.5534 32.5864 75.0368 33.2117C74.7241 33.5924 74.4658 34.0002 74.2891 34.4624C74.1396 34.8567 73.99 35.2509 73.8949 35.6587C73.7997 36.053 73.7861 36.4608 73.6094 36.8279C73.5958 36.8415 73.6094 36.8686 73.6094 36.8958C73.6909 37.5348 73.4326 38.1601 73.4598 38.8127C73.5006 39.9818 73.5006 41.1645 73.4598 42.3337C73.4326 43.2989 73.4734 44.2505 73.623 45.1885C73.7589 46.0586 73.9085 46.9422 74.2891 47.7579C74.5338 48.2881 74.8329 48.7639 75.2543 49.1989C75.703 49.6747 76.2603 49.9194 76.8721 50.0554C76.8857 50.0554 76.8857 50.0962 76.8857 50.1505Z" fill="#0E4656"/>
<path d="M78.6543 49.8794C79.2661 49.6618 79.402 49.1588 79.4836 48.5743C79.7419 46.5351 79.5244 44.4959 79.6331 42.4023C80.34 42.4023 81.0469 42.4023 81.7675 42.4023C82.488 42.4023 83.2085 42.4023 83.9426 42.4023C83.9426 44.8901 83.9426 47.3508 83.9426 49.8386C83.8067 49.9745 83.7795 49.6211 83.6299 49.7434C83.358 49.4715 83.0589 49.2812 82.6511 49.3356C82.3112 49.3899 81.9578 49.3084 81.6043 49.4307C80.979 49.6347 80.3128 49.7026 79.6875 49.8929C79.334 50.0017 79.0078 50.0153 78.6543 50.0153C78.6543 49.9609 78.6543 49.9201 78.6543 49.8794Z" fill="#0E4656"/>
<path d="M94.4219 49.7406C95.4959 49.6319 96.5019 49.3872 97.3719 48.6531C98.0516 48.0685 98.5546 47.3616 99.044 46.6411C99.5063 45.9478 99.9413 45.2136 100.268 44.4388C100.308 44.33 100.363 44.3164 100.458 44.3164C100.594 44.8058 100.567 45.6079 100.444 46.1245C100.295 46.7498 100.471 47.3888 100.308 48.0277C100.159 48.5987 100.376 49.2648 100.077 49.8902C98.2284 49.8902 96.3251 49.8902 94.4355 49.8902C94.4219 49.8222 94.4219 49.7814 94.4219 49.7406Z" fill="#0E4656"/>
<path d="M109.919 49.7423C110.843 49.7015 111.727 49.484 112.556 49.0761C112.991 48.8586 113.426 48.6003 113.78 48.2605C114.256 47.7982 114.772 47.3496 115.126 46.7786C115.425 46.2756 115.71 45.7591 115.901 45.2017C115.969 44.9978 116.037 44.8346 116.281 44.6035C116.349 45.1881 116.308 45.6775 116.308 46.1533C116.091 46.33 116.186 46.5747 116.186 46.7786C116.172 47.7982 116.186 48.8178 116.186 49.8102C116.118 49.8782 116.077 49.919 115.982 50.0142C113.997 50.0142 111.958 50.0142 109.933 50.0142C109.919 49.919 109.919 49.8238 109.919 49.7423Z" fill="#0E4656"/>
<path d="M63.1547 49.8787C62.2031 49.8787 61.2514 49.8787 60.2998 49.8787C60.2998 49.838 60.2998 49.7836 60.2998 49.7428C60.7484 49.8108 61.1699 49.5661 61.6185 49.5797C61.6321 49.5797 61.6457 49.5117 61.6593 49.4709C61.9719 49.4981 62.2302 49.3621 62.5021 49.2398C63.4673 48.7912 64.351 48.2338 64.922 47.2958C65.3026 46.9831 65.4929 46.5481 65.7512 46.1538C65.8192 46.0315 65.9008 45.9499 65.8736 45.8004C66.1319 45.7052 65.9688 45.4197 66.1319 45.2566C66.2678 45.1342 66.2814 44.8895 66.363 44.6992C66.431 44.7128 66.4718 44.7128 66.5533 44.7264C66.5533 45.1207 66.5533 45.5149 66.5533 45.9227C66.431 45.9091 66.4174 46.0043 66.4174 46.0995C66.4174 46.6296 66.4174 47.1598 66.4174 47.69C66.4174 48.4105 66.4174 49.1174 66.4174 49.8651C65.3978 49.8651 64.4054 49.8651 63.4266 49.8651C63.3314 49.8787 63.2362 49.8787 63.1547 49.8787Z" fill="#0E4656"/>
<path d="M78.6543 32.0707C79.47 32.0027 80.2313 32.2338 81.0198 32.4378C81.5364 32.5601 82.0801 32.7368 82.6511 32.6009C82.8143 32.5465 82.855 32.3018 83.1405 32.3562C83.1405 32.6281 83.1541 32.9136 83.1405 33.1991C83.1133 34.4226 83.3852 35.6461 83.2765 36.8832C83.2629 37.0327 83.2765 37.1959 83.2765 37.3318C83.1405 37.3862 83.0726 37.3998 83.0046 37.2502C82.4744 36.1355 81.7811 35.1159 81.0606 34.1099C80.544 33.3894 79.8778 32.9 79.1845 32.397C79.0349 32.2882 78.8038 32.3562 78.6543 32.2067C78.6543 32.1523 78.6543 32.1115 78.6543 32.0707Z" fill="#0E4656"/>
<path d="M43.0351 43.625C43.0351 43.7202 43.0351 43.8017 43.0351 43.8969C41.3086 43.8969 39.5957 43.8969 37.8691 43.8969C37.8963 43.7881 37.8012 43.6386 38.0051 43.625C39.6772 43.625 41.3494 43.625 43.0351 43.625Z" fill="#0E4656"/>
<path d="M109.173 50.0682C109.758 50.0682 110.233 49.9829 110.233 49.8778C110.233 49.7727 109.758 49.6875 109.173 49.6875C108.587 49.6875 108.112 49.7727 108.112 49.8778C108.112 49.9829 108.587 50.0682 109.173 50.0682Z" fill="#0E4656"/>
<path d="M78.6521 49.8772C78.6521 49.918 78.6521 49.9724 78.6521 50.0132C78.6521 50.0404 78.6521 50.0812 78.6521 50.0812C78.0811 50.1491 77.5237 50.3666 76.9391 50.2579C76.9119 50.2579 76.912 50.1899 76.8848 50.1491C76.8848 50.1083 76.8848 50.054 76.8848 50.0132C77.0887 50.0132 77.2926 50.0132 77.4965 50.0132C77.7004 50.0132 77.9044 49.986 78.1083 50.0132C78.3122 50.054 78.4346 49.8093 78.6521 49.8772Z" fill="#0E4656"/>
<path d="M78.6528 32.0693C78.6528 32.1101 78.6528 32.1644 78.6528 32.2052C78.3538 32.2732 78.1227 32.0285 77.8372 32.0557C77.5653 32.0965 77.2934 32.0693 77.0215 32.0693C77.0215 32.0285 77.0215 31.9741 77.0215 31.9333C77.0623 31.675 77.307 31.7702 77.3885 31.811C77.742 31.9877 78.1091 31.9197 78.4761 31.9333C78.5713 31.9333 78.6528 31.9333 78.6528 32.0693Z" fill="#0E4656"/>
<path d="M60.2984 49.7422C60.2984 49.783 60.2984 49.8374 60.2984 49.8781C60.0944 49.8102 59.9585 50.0549 59.7546 50.0141C59.5778 49.9869 59.4011 50.0141 59.2108 50.0141C59.17 50.0141 59.1156 50.0141 59.0748 50.0141C59.0748 49.9189 59.034 49.8781 58.9389 49.8781C58.8437 49.8781 58.7622 49.8781 58.667 49.8781C58.667 49.8374 58.667 49.783 58.667 49.7422C59.2108 49.7422 59.7546 49.7422 60.2984 49.7422Z" fill="#0E4656"/>
<path d="M93.6746 49.9071C94.2602 49.9071 94.735 49.8645 94.735 49.812C94.735 49.7594 94.2602 49.7168 93.6746 49.7168C93.089 49.7168 92.6143 49.7594 92.6143 49.812C92.6143 49.8645 93.089 49.9071 93.6746 49.9071Z" fill="#0E4656"/>
<path d="M63.1553 49.877C63.2504 49.877 63.332 49.877 63.4272 49.877C63.4272 49.9177 63.4272 49.9721 63.4272 50.0129C63.3184 49.9857 63.1689 50.0809 63.1553 49.877Z" fill="#0E4656"/>
<path d="M58.9415 49.877C59.0367 49.877 59.0775 49.9177 59.0775 50.0129C58.9823 50.0129 58.9279 49.9721 58.9415 49.877Z" fill="#0E4656"/>
</svg>
