<svg width="117" height="84" viewBox="0 0 117 84" fill="none" xmlns="http://www.w3.org/2000/svg">
<path d="M42.132 0C42.2408 0.367053 42.7302 0.489404 42.7574 0.92443C42.7574 8.65973 42.7574 16.395 42.7574 24.1032C42.5263 24.5246 42.1456 24.4158 41.8057 24.4158C41.4115 24.0352 41.262 23.5866 41.262 23.0292C41.2756 15.6745 41.2756 8.31987 41.2756 0.978808C41.2756 0.638944 41.2484 0.285486 41.4931 0C41.697 0 41.9145 0 42.132 0Z" fill="#CBB894"/>
<path d="M57.4389 3.02916C57.7924 2.97478 58.1322 2.9204 58.4041 3.26027C58.6216 4.13032 58.309 4.9188 57.9963 5.70729C57.6428 6.59093 57.2622 7.47458 56.9359 8.37182C56.7184 8.95639 56.4057 9.50017 56.1746 10.0847C55.6988 11.2403 55.1414 12.3686 54.6928 13.5378C54.1626 14.9244 53.4149 16.2295 53.0751 17.6841C52.5993 18.1463 52.5585 18.826 52.2594 19.3834C51.9195 19.9816 51.6205 20.6477 51.4573 21.2867C51.2806 21.98 50.6688 22.483 50.7368 23.2443C50.2746 23.8968 49.9755 24.6445 49.7036 25.3786C49.5677 25.7457 49.2958 25.9088 49.0919 26.1399C48.82 25.8272 48.5617 25.5417 48.317 25.2427C48.0587 24.6581 48.5753 24.1279 48.7656 23.489C49.0647 22.483 49.5677 21.5314 49.8939 20.5254C50.0979 19.9 50.5057 19.3426 50.7096 18.7309C51.3486 16.8548 52.273 15.1011 52.9119 13.2115C53.1023 12.6269 53.4421 12.0831 53.6732 11.4986C54.2034 10.1799 54.9103 8.94279 55.2638 7.55615C55.8212 6.94439 55.9299 6.11512 56.2834 5.40821C56.6232 4.74207 56.8815 4.02156 57.1806 3.32824C57.2214 3.23308 57.3438 3.13792 57.4389 3.02916Z" fill="#CBB894"/>
<path d="M35.6578 25.6273C35.5491 25.7361 35.4811 25.804 35.3723 25.9128C35.1548 25.9128 34.9101 25.9128 34.5974 25.9128C34.108 24.934 33.5235 23.9552 33.1292 22.9084C32.8845 22.2558 32.5719 21.6441 32.3136 20.9916C31.593 19.1835 30.6958 17.4434 30.0025 15.6353C29.2548 13.6913 28.3032 11.8424 27.7186 9.83042C27.4739 8.98756 27.0117 8.19907 26.6582 7.3834C26.264 6.47257 26.1552 5.45297 25.5978 4.61011C25.4755 4.43338 25.6794 3.74006 25.8969 3.23706C26.8757 3.34582 27.2564 4.1479 27.4739 4.882C27.6778 5.60251 28.0992 6.20067 28.3168 6.894C28.8062 8.47097 29.5539 9.95277 30.152 11.489C30.5599 12.5629 31.0629 13.6097 31.5523 14.6565C31.9329 15.4586 32.1912 16.3286 32.5583 17.1307C32.9253 17.9464 33.1836 18.8164 33.5779 19.5913C34.2032 20.8012 34.5974 22.1063 35.114 23.357C35.4131 24.0775 35.8074 24.8116 35.6578 25.6273Z" fill="#CBB894"/>
<path d="M81.0124 57.5612C80.9988 57.8875 81.094 58.241 80.6861 58.4721C80.02 58.5944 79.3811 58.3361 78.7013 58.0914C76.3359 57.2214 74.12 56.025 71.7137 55.2909C70.8573 54.6928 69.8513 54.4209 68.8996 54.0538C67.0508 53.3469 65.2699 52.4633 63.3803 51.8515C62.8229 51.6748 62.3199 51.3349 61.7489 51.1446C60.8517 50.8183 60.0224 50.3153 59.1388 49.9619C58.595 49.7444 58.2279 49.4317 58.0376 48.8471C58.2007 48.4257 58.6494 48.3985 58.9484 48.1946C60.3079 48.7384 61.6266 49.2957 62.9588 49.7851C63.8561 50.125 64.7669 50.4649 65.637 50.8319C66.575 51.2398 67.513 51.6748 68.4646 52.0282C70.3135 52.7352 72.108 53.6052 73.984 54.2442C74.623 54.4617 75.2619 54.7743 75.8873 55.087C77.1108 55.6852 78.3886 56.1202 79.6122 56.7184C80.0744 56.9495 80.6046 57.0582 81.0124 57.5612Z" fill="#CBB894"/>
<path d="M48.6038 58.0764C49.8273 58.2124 49.9633 59.2184 50.2352 59.9253C50.4935 60.605 50.8605 61.2304 51.0644 61.9373C51.2955 62.7258 51.6898 63.4599 51.9889 64.2212C52.2879 64.996 52.5598 65.7845 52.8997 66.5186C53.2532 67.2663 53.4979 68.0548 53.9057 68.7889C54.232 69.3871 54.5582 70.0396 54.735 70.6922C54.9117 71.3447 55.4827 71.8341 55.4283 72.5546C55.9993 73.1528 56.1216 73.982 56.4615 74.7026C57.1412 76.13 57.6714 77.6254 58.2016 79.1208C58.3103 79.4471 58.4735 79.7325 58.6366 80.1404C58.6366 80.3307 58.6366 80.6434 58.6366 81.0104C57.8345 81.024 57.2771 80.8065 56.8965 80.0316C56.4343 79.08 56.0129 78.1148 55.6322 77.1224C55.4283 76.565 55.1292 76.0484 54.9117 75.491C54.3271 73.9549 53.5658 72.4731 52.9813 70.9369C52.4511 69.5502 51.8393 68.1908 51.2955 66.8177C50.9149 65.8389 50.4663 64.8737 50.072 63.8949C49.5282 62.549 48.9437 61.2168 48.4679 59.8437C48.3319 59.4495 48.2368 59.0824 48.4271 58.7697C48.5766 58.5386 48.5087 58.2939 48.6038 58.0764Z" fill="#CBB894"/>
<path d="M72.1883 71.1268C72.1067 71.5482 72.1203 71.5618 71.6853 71.9697C71.1551 72.0784 70.7065 71.9153 70.3122 71.5211C70.1899 71.3987 70.0539 71.2628 69.9316 71.1404C65.459 66.6814 60.9864 62.2224 56.5137 57.7498C55.766 57.0021 55.2223 56.0776 54.3794 55.4387C54.3794 55.0988 54.3794 54.7997 54.3794 54.4463C54.7736 54.4463 55.1679 54.4463 55.467 54.4463C61.0679 60.0337 66.6145 65.5666 72.1883 71.1268Z" fill="#CBB894"/>
<path d="M34.6541 58.1158C34.9939 58.0614 35.3474 57.9663 35.6465 58.3877C35.7824 59.0539 35.5241 59.6928 35.2658 60.3725C34.7628 61.7048 34.2462 63.0235 33.7025 64.3285C33.3218 65.2666 32.8596 66.2046 32.5061 67.1562C31.9488 68.6788 31.1875 70.1062 30.6981 71.656C30.5213 72.1998 30.2087 72.73 29.9775 73.2738C29.4338 74.5788 28.7812 75.8567 28.251 77.1618C27.884 78.0862 27.4626 78.9835 27.0955 79.8943C26.8916 80.3973 26.6605 80.7916 26.0623 80.9411C25.6273 80.4925 25.5457 80.0167 25.7496 79.2826C26.1031 78.059 26.4973 76.8899 27.0547 75.748C27.3538 75.1226 27.6529 74.4701 27.8568 73.8311C28.0607 73.165 28.5093 72.6076 28.6317 71.8871C28.7268 71.3705 29.0531 70.8539 29.2978 70.3509C29.9096 69.1002 30.3582 67.7816 30.9564 66.5445C31.4186 65.5928 31.7992 64.6004 32.2071 63.6352C32.6013 62.6972 32.9683 61.732 33.3626 60.794C33.7432 59.9103 33.9879 58.9043 34.6541 58.1158Z" fill="#CBB894"/>
<path d="M25.777 34.5552C25.777 34.9358 25.777 35.3165 25.777 35.7379C25.3827 35.7379 25.0021 35.7379 24.5943 35.7379C24.0505 35.3573 23.3436 35.2349 22.7182 34.9222C22.188 34.6639 21.6035 34.5008 21.0597 34.2697C19.4691 33.6172 17.9193 32.8967 16.288 32.3257C15.2956 31.9722 14.3712 31.4284 13.3788 31.075C12.264 30.6671 11.1764 30.1641 10.0753 29.7427C9.43633 29.498 8.79739 29.1989 8.17204 28.9134C6.55429 28.1657 4.85497 27.5812 3.2644 26.6568C3.2644 26.4121 3.2644 26.0994 3.2644 25.8139C3.781 25.2837 4.35197 25.5692 4.86856 25.7323C6.33677 26.2353 7.7778 26.8335 9.19163 27.4588C10.8774 28.2065 12.5631 28.9678 14.2624 29.7019C15.8666 30.3953 17.4843 31.075 19.0885 31.7547C20.2984 32.2713 21.5491 32.7063 22.759 33.2365C23.765 33.6715 24.9069 33.8075 25.777 34.5552Z" fill="#CBB894"/>
<path d="M3.25017 58.1841C3.15501 57.1509 3.98428 56.7974 4.6776 56.6207C5.33014 56.444 5.88752 56.0769 6.52646 55.873C7.12462 55.6827 7.74997 55.3564 8.34813 55.1117C9.44929 54.6631 10.5233 54.1465 11.6652 53.7794C12.2906 53.5755 12.8615 53.2085 13.4597 52.9366C14.724 52.3656 16.0155 51.8626 17.2934 51.2916C18.3129 50.843 19.3869 50.4624 20.4201 50.0273C21.698 49.4835 22.9895 48.9805 24.3081 48.5455C24.7568 48.396 25.219 48.3144 25.7356 48.1785C25.7356 48.6271 25.7356 49.0213 25.7356 49.4699C25.1238 50.0953 24.213 50.2041 23.4381 50.5439C22.7856 50.843 22.1194 51.1421 21.4397 51.414C19.7676 52.0529 18.1498 52.8006 16.5049 53.5075C15.0367 54.1057 13.582 54.7582 12.1002 55.3292C9.96589 56.1449 7.91311 57.1509 5.73798 57.8714C5.39811 57.9801 5.05825 58.1569 4.74558 58.32C4.1746 58.6055 3.72598 58.4695 3.25017 58.1841Z" fill="#CBB894"/>
<path d="M29.8422 29.1986C29.6655 29.4026 29.4888 29.6201 29.3936 29.7424C28.8906 29.9463 28.6731 29.3482 28.306 29.6201C25.4376 26.7652 22.5148 24.0191 19.8094 21.0827C17.308 18.3638 14.5755 15.8624 12.0605 13.1571C11.9382 12.722 12.1693 12.3686 12.3596 12.0151C12.7675 11.9336 13.0801 12.1783 13.3792 12.3822C13.5559 12.5045 13.6919 12.6813 13.8414 12.8308C18.8986 17.8744 23.9694 22.9316 29.0266 27.9751C29.3664 28.315 29.7607 28.6141 29.8422 29.1986Z" fill="#CBB894"/>
<path d="M70.8291 12.2344C71.1418 12.2344 71.4273 12.2344 71.6856 12.2344C71.7264 12.2752 71.7672 12.3023 71.7672 12.3295C71.7672 12.683 71.7672 13.0365 71.7672 13.3899C66.574 18.5694 61.3809 23.749 56.2014 28.9149C55.8887 29.2276 55.6032 29.5946 55.1546 29.7578C54.8419 29.7578 54.5293 29.7578 54.203 29.7578C54.0399 29.1868 54.271 28.7518 54.6244 28.3575C54.6516 28.3303 54.6788 28.3031 54.706 28.276C56.2694 26.8757 57.5201 25.19 59.0291 23.7354C60.5381 22.2672 61.9383 20.6766 63.5289 19.29C66.071 17.0876 68.3006 14.5454 70.8291 12.2344Z" fill="#CBB894"/>
<path d="M58.0078 34.8827C58.47 34.1757 59.2449 33.9854 59.8975 33.6727C60.5772 33.3465 61.2977 33.061 62.0046 32.8299C62.6979 32.5988 63.3641 32.3133 64.0438 32.0414C65.58 31.4296 67.1026 30.7907 68.598 30.0838C69.468 29.6759 70.3653 29.3361 71.2353 28.9418C72.0782 28.5612 72.9482 28.2213 73.8047 27.9086C75.0146 27.46 76.1701 26.8755 77.3936 26.4676C78.0326 26.2501 78.6036 25.9374 79.2153 25.6927C79.7727 25.4752 80.2485 25.448 80.7651 25.7879C80.7651 26.0054 80.7651 26.2501 80.7651 26.522C80.099 26.9978 79.3241 27.3105 78.5628 27.6368C78.0734 27.8543 77.584 28.031 77.0946 28.2213C75.7759 28.7515 74.4708 29.3089 73.1521 29.8527C71.9014 30.3693 70.6372 30.8723 69.4272 31.4976C68.8155 31.8103 68.1629 32.123 67.524 32.3133C66.8715 32.5036 66.3277 32.8843 65.6751 33.061C65.1042 33.2105 64.5332 33.5776 63.9622 33.8223C62.4804 34.4612 60.985 35.0866 59.4896 35.7119C58.8643 35.9702 58.2253 35.6304 58.0078 34.8827Z" fill="#CBB894"/>
<path d="M13.0527 72.4718C12.7672 72.1863 12.5361 71.9552 12.2778 71.7105C12.2778 71.357 12.2778 70.9764 12.2778 70.5821C17.7428 65.1307 23.2079 59.6793 28.6593 54.2415C28.9991 54.2415 29.3118 54.2415 29.6381 54.2415C29.6381 54.6221 29.6381 54.9756 29.6381 55.4106C29.3662 55.6825 29.0399 56.0087 28.7137 56.335C23.7788 61.2562 18.844 66.1775 13.9092 71.0987C13.5421 71.4794 13.1615 71.8328 13.0527 72.4718Z" fill="#CBB894"/>
<path d="M83.6367 41.353C84.1125 41.6385 83.9901 41.9784 84.0173 42.3318C83.8542 42.4678 83.6639 42.6309 83.4056 42.8348C75.7518 42.8348 68.0029 42.8348 60.3764 42.8348C59.8734 42.6445 59.5335 42.427 59.2888 42.0463C59.3432 41.7201 59.6559 41.5705 59.8598 41.353C67.8126 41.353 75.7518 41.353 83.6367 41.353Z" fill="#CBB894"/>
<path d="M0.735492 42.8214C0.531573 42.6719 0.382033 42.3592 0.0421692 42.3456C-0.13456 41.8562 0.286871 41.6659 0.517979 41.3804C8.41642 41.3804 16.3149 41.3804 24.1453 41.3804C24.2949 41.5027 24.4036 41.5979 24.4988 41.6659C24.5532 42.1553 24.2405 42.4543 24.0909 42.8214C16.2877 42.8214 8.53877 42.8214 0.735492 42.8214Z" fill="#CBB894"/>
<path d="M42.768 83.2257C42.5097 83.4976 42.265 83.7423 42.0203 84.0006C41.7892 83.7695 41.5581 83.5384 41.2998 83.2801C41.2998 75.5719 41.2998 67.8366 41.2998 60.0877C41.4629 59.911 41.6397 59.7343 41.8028 59.5712C42.2106 59.544 42.4553 59.6391 42.5777 60.0877C42.7 60.5228 42.7816 60.9442 42.7816 61.3928C42.768 68.6795 42.768 75.9662 42.768 83.2257Z" fill="#CBB894"/>
<path d="M73.7114 48.5467C73.1812 49.0769 72.5695 48.9137 72.0801 48.7914C71.781 48.7098 71.4683 48.6282 71.1828 48.669C70.8294 48.7234 70.639 48.4107 70.2992 48.4243C69.266 48.4651 68.3008 48.0029 67.2676 48.0029C66.887 47.5407 66.2208 48.0437 65.8402 47.5679C65.3372 47.6766 64.9021 47.3775 64.4263 47.3639C63.8962 47.3639 63.4475 46.9697 62.9038 47.1328C62.2104 46.6706 61.354 46.7658 60.5927 46.5211C59.5731 46.1948 59.5459 46.2764 59.0837 45.4335C59.0837 45.3927 59.0701 45.3519 59.0837 45.3248C59.2604 45.148 59.4371 44.9713 59.6411 44.7946C60.6335 44.6722 61.5579 45.0801 62.4959 45.3384C62.9445 45.4607 63.4883 45.2296 63.8554 45.651C64.9293 45.5695 65.9217 46.1676 66.9957 46.0861C67.5531 46.4803 68.2464 46.3036 68.8718 46.4667C69.4427 46.6162 70.0681 46.7386 70.6934 46.7658C71.2644 46.793 71.849 47.0377 72.4335 47.1872C72.9501 47.3096 73.5483 47.6086 73.5211 48.3699C73.5347 48.4107 73.6299 48.4651 73.7114 48.5467Z" fill="#CBB894"/>
<path d="M24.4845 69.0197C24.199 68.6935 23.9543 68.408 23.696 68.1089C26.1974 64.3432 28.4541 60.3328 31.2682 56.5807C31.4313 56.5807 31.6353 56.5807 31.8392 56.5807C32.0295 56.5943 32.0703 56.3088 32.4102 56.404C32.4373 56.4584 32.5189 56.6215 32.682 56.9478C32.5461 57.5323 32.1383 58.2664 31.676 58.9462C29.5825 62.1137 27.421 65.2404 25.3682 68.4352C25.1643 68.7342 24.9196 69.1149 24.4845 69.0197Z" fill="#CBB894"/>
<path d="M26.456 32.5712C24.9606 31.5924 23.6691 30.6816 22.3096 29.8795C21.997 29.7028 21.793 29.2949 21.3716 29.3221C20.6239 28.5608 19.6451 28.1394 18.7615 27.5956C17.8778 27.0382 17.0893 26.3721 16.1377 25.9371C15.7707 25.7739 15.5803 25.4205 15.2812 25.203C15.2812 24.8223 15.2812 24.4689 15.2812 24.061C15.6619 24.061 16.0425 24.061 16.4912 24.061C16.8038 24.2921 17.1573 24.6592 17.5787 24.8495C18.5439 25.271 19.346 25.9371 20.2161 26.4945C22.2281 27.7723 24.1857 29.1454 26.1977 30.4233C26.8094 30.8175 27.1901 31.4157 27.7611 31.8099C27.7339 32.2178 27.3804 32.3265 27.2173 32.5848C26.9046 32.5712 26.6191 32.5712 26.456 32.5712Z" fill="#CBB894"/>
<path d="M59.8865 39.2192C59.6146 38.9473 59.2204 38.7705 59.3155 38.2947C59.5466 37.7374 60.1448 37.6014 60.5662 37.5334C61.9665 37.3295 63.2715 36.677 64.699 36.6362C65.1204 36.2827 65.637 36.4867 66.1128 36.4187C66.8741 36.2963 67.6762 36.2284 68.3967 35.9701C69.2667 35.6574 70.1776 35.6438 71.0204 35.3311C71.673 35.1 72.3119 35.168 72.9509 35.1272C73.1548 35.4263 73.617 35.535 73.4811 36.0108C73.2907 36.6498 72.6654 36.6906 72.1896 36.8265C71.5234 37.0304 70.8301 37.1936 70.1368 37.3159C69.525 37.4247 68.8725 37.4927 68.2743 37.7102C67.7034 37.9141 67.0916 37.9821 66.5206 38.0908C65.9633 38.186 65.3923 38.3491 64.7941 38.3899C64.2368 38.4307 63.6658 38.5122 63.122 38.7434C62.687 38.9337 62.1296 38.5938 61.7354 39.0016C61.0828 38.8521 60.5118 39.2328 59.8865 39.2192Z" fill="#CBB894"/>
<path d="M10.2395 35.7649C10.9192 35.0579 11.6669 35.0171 12.469 35.2483C13.2711 35.4794 14.0868 35.6697 14.9296 35.8192C15.9492 36.0096 17.0232 35.9824 18.002 36.4174C18.9536 36.2678 19.8101 36.7437 20.7209 36.8796C21.8357 37.0427 22.9232 37.437 24.0244 37.6953C24.3778 37.7768 24.473 38.1031 24.7313 38.2255C24.6089 38.81 24.6089 38.81 23.7797 39.2315C23.399 39.0819 22.9368 39.0683 22.529 38.9596C21.5774 38.7285 20.585 38.7692 19.6605 38.375C19.3071 38.2255 18.8585 38.2119 18.4642 38.1711C17.1727 38.0351 15.922 37.6953 14.6577 37.4642C13.6653 37.2874 12.6729 37.0699 11.6941 36.8524C11.096 36.7165 10.7017 36.295 10.2395 35.7649Z" fill="#CBB894"/>
<path d="M23.6284 15.7693C23.9003 15.4974 24.1586 15.2527 24.4305 14.9944C24.5528 14.9944 24.6888 14.9944 24.8247 14.9944C25.1782 15.5654 25.4637 16.1907 25.9123 16.6801C26.3745 17.1967 26.7008 17.7813 27.1086 18.3386C27.8835 19.399 28.6448 20.4594 29.3109 21.6013C30.113 22.9608 31.0782 24.1979 31.8531 25.571C32.1386 26.0875 32.3969 26.6313 32.7096 27.012C32.6144 27.5422 32.3697 27.6781 32.0978 27.6509C30.684 27.1071 30.2898 25.7613 29.5149 24.7689C28.4545 23.423 27.5437 21.9412 26.5784 20.5274C25.5181 19.032 24.3761 17.5774 23.6284 15.7693Z" fill="#CBB894"/>
<path d="M69.1973 59.2597C68.8846 59.5859 68.6127 59.8578 68.2049 60.2657C67.7971 60.3608 67.2805 59.9938 66.859 59.6675C65.5947 58.7023 64.2489 57.8594 62.9166 57.003C61.4756 56.0785 60.0346 55.1541 58.6071 54.2161C58.4304 54.1073 58.2945 53.9306 58.1449 53.7811C57.8051 53.4412 57.4924 53.0741 57.003 52.9246C56.6087 52.8023 56.4048 52.5032 56.3232 52.3129C56.3368 51.7691 56.7175 51.7147 56.7855 51.4836C57.2205 51.2933 57.6147 51.4564 57.8866 51.6603C59.6267 52.8702 61.462 53.9578 63.1749 55.1949C65.0645 56.568 67.0765 57.7507 68.9526 59.1373C68.9934 59.1917 69.1293 59.1645 69.1973 59.2597Z" fill="#CBB894"/>
<path d="M59.8047 69.0041C58.8531 68.7594 58.3909 67.9573 57.8879 67.2368C56.8411 65.755 55.8487 64.2324 54.8563 62.7234C53.7687 61.0785 52.6947 59.4064 51.6072 57.7478C51.6072 57.3808 51.6072 57.0001 51.6072 56.5923C51.8791 56.5923 52.1102 56.5923 52.3549 56.5923C53.1706 57.34 53.7687 58.2508 54.3805 59.1753C54.9786 60.0725 55.6719 60.9154 56.2837 61.8126C57.3577 63.3624 58.418 64.9122 59.4512 66.4891C59.7775 66.9785 59.8455 67.6039 60.1446 68.1341C60.2941 68.406 60.2397 68.8274 59.8047 69.0041Z" fill="#CBB894"/>
<path d="M68.1249 23.7483C68.4104 23.925 68.6279 24.061 68.859 24.1969C69.0085 24.2921 69.1581 24.3736 69.226 24.4144C69.1173 25.1077 68.6007 25.1485 68.3016 25.366C66.5479 26.6167 64.767 27.8267 62.9589 29.0094C61.2188 30.1513 59.4651 31.2797 57.7522 32.476C57.5211 32.6391 57.2492 32.843 56.8006 32.7479C56.6918 32.5983 56.5287 32.3808 56.2976 32.0682C56.2976 32.041 56.2976 31.8642 56.2976 31.6059C56.7734 30.9942 57.5347 30.6407 58.2008 30.2193C60.5663 28.7647 62.8638 27.1877 65.1884 25.6651C66.1537 25.0534 67.0645 24.3465 68.1249 23.7483Z" fill="#CBB894"/>
<path d="M52.6924 27.4181C52.2302 27.4181 51.9447 27.4181 51.6184 27.4181C51.6184 27.0375 51.6184 26.6568 51.6184 26.2762C52.1622 25.4605 52.7332 24.6176 53.2905 23.7748C54.5005 21.9667 55.724 20.145 56.9339 18.3233C57.2466 17.8475 57.5456 17.3717 57.8175 16.8823C58.171 16.257 58.6196 15.6724 59.245 15.2102C59.748 15.1014 59.9247 15.5229 60.1694 15.7812C60.2238 16.2978 59.9383 16.6376 59.7344 16.9503C57.4505 20.4849 55.1666 24.0195 52.6924 27.4181Z" fill="#CBB894"/>
<path d="M47.5696 10.5085C47.9095 10.5085 48.195 10.5085 48.4533 10.5085C48.6436 10.6989 48.8203 10.8756 48.9971 11.0523C49.0786 11.6369 48.6572 12.1671 48.766 12.7652C48.3445 13.1595 48.7796 13.7984 48.3581 14.1927C48.3717 14.8452 48.0998 15.4434 48.0183 16.0823C47.9367 16.7213 47.8143 17.3602 47.6784 17.9856C47.4881 18.8284 47.2977 19.6713 47.0938 20.5141C46.8899 21.357 46.754 22.2135 46.4413 23.0291C46.3325 23.301 46.4141 23.6001 46.2374 23.9128C45.9383 24.443 46.0063 24.4838 45.5712 24.8508C45.1362 24.7964 45.1906 24.3206 44.9187 24.1031C45.0003 23.7496 44.8099 23.3826 45.109 23.0155C45.2993 22.7844 45.109 22.3766 45.245 22.0095C45.4489 21.4929 45.4489 20.8812 45.5305 20.3102C45.5984 19.8072 45.9383 19.3314 45.7752 18.8012C46.2374 18.4614 45.7344 17.8224 46.183 17.469C46.0878 16.8708 46.4005 16.3406 46.4413 15.756C46.4821 15.1987 46.6044 14.6413 46.7676 14.0839C46.9171 13.5673 46.9307 13.0099 47.0666 12.4934C47.257 11.868 47.2162 11.1747 47.5696 10.5085Z" fill="#CBB894"/>
<path d="M35.2519 72.9899C35.2111 72.0655 35.4014 71.2498 35.6189 70.4069C35.7413 69.9583 35.8365 69.4825 35.8772 69.0203C35.9724 68.0687 36.3938 67.1714 36.3123 66.2062C36.7881 65.0779 36.6657 63.8136 37.1551 62.6988C37.0736 61.5841 37.6309 60.5645 37.6037 59.4089C38.0524 59.4089 38.501 59.4089 39.0584 59.4089C39.3846 59.5313 39.3982 59.9391 39.2895 60.2518C38.8544 61.5705 38.7049 62.9435 38.4058 64.2758C38.2835 64.8196 38.1611 65.3905 38.0524 65.9343C37.9436 66.4917 37.6581 67.0491 37.7941 67.6608C37.3047 68.9387 37.2911 70.3526 36.7609 71.6168C36.6385 71.9023 36.7065 72.2014 36.5842 72.5005C36.4346 72.9083 36.2443 73.221 35.9316 73.4929C35.6189 73.4929 35.5238 73.1666 35.2519 72.9899Z" fill="#CBB894"/>
<path d="M15.2935 59.9242C15.1439 59.5707 15.7421 59.4076 15.443 59.0813C16.3131 58.0617 17.455 57.4907 18.5018 56.7838C20.3235 55.5603 22.1451 54.3504 23.9668 53.1269C24.7553 52.5967 25.5302 52.0393 26.4002 51.4412C26.6041 51.4412 26.9168 51.4412 27.1887 51.4412C27.515 51.5907 27.447 51.9578 27.6781 52.1209C27.7189 52.1753 27.6781 52.2025 27.6237 52.2704C26.8217 53.1949 25.6933 53.6707 24.7553 54.4184C23.4502 55.4516 21.982 56.24 20.6633 57.2596C19.5758 58.1025 18.3794 58.823 17.2239 59.5571C16.6393 59.9242 16.0004 60.1825 15.2935 59.9242Z" fill="#CBB894"/>
<path d="M35.6335 10.4829C35.8918 10.6596 36.218 10.6868 36.5035 11.0131C36.6803 12.0327 36.9657 13.1338 37.2104 14.2486C37.4144 15.1187 37.5367 16.0159 37.7814 16.8995C37.931 17.4297 37.9989 18.0279 38.1213 18.5853C38.2436 19.1426 38.3116 19.7136 38.4747 20.2574C38.801 21.345 38.8962 22.4869 39.3176 23.5473C39.3856 23.6968 39.3312 23.9007 39.3312 23.9551C38.9913 24.2814 38.7194 24.5397 38.4068 24.8388C37.9989 24.7164 37.9038 24.227 37.6047 23.8464C37.7814 23.289 37.3328 22.7588 37.3872 22.1742C36.9114 21.8344 37.4416 21.1818 36.9657 20.842C37.0745 20.339 36.8162 19.8903 36.7074 19.4417C36.5035 18.5717 36.3404 17.6744 36.1637 16.7908C35.9733 15.9071 35.6743 15.0099 35.6879 14.0855C35.6879 13.732 35.3752 13.4873 35.4567 13.1067C35.5111 12.8076 35.348 12.5085 35.2936 12.223C35.1849 11.6656 35.1305 11.0403 35.6335 10.4829Z" fill="#CBB894"/>
<path d="M10.333 48.3154C10.333 48.1659 10.333 48.0299 10.333 47.8804C10.7001 47.5269 11.1351 47.4318 11.6109 47.323C12.5897 47.0919 13.5957 46.9288 14.5881 46.752C15.4853 46.5889 16.3962 46.4122 17.2934 46.249C18.0683 46.0995 18.8704 45.9228 19.6453 45.7324C20.461 45.5421 21.2902 45.3382 22.1195 45.1887C22.8128 45.0663 23.4654 44.7128 24.1451 44.7808C24.417 45.0527 24.6753 45.311 24.9743 45.5965C24.6481 46.1403 24.1995 46.5481 23.5197 46.4665C23.1935 46.4258 23.0167 46.6705 22.7448 46.6977C21.4262 46.8336 20.1347 47.1871 18.8296 47.3774C17.9867 47.4997 17.1031 47.6085 16.2738 47.9348C15.9068 48.0843 15.431 47.8396 15.0911 48.1931C14.2482 48.0979 13.5141 48.6145 12.6849 48.6417C12.4402 48.6553 12.1819 48.9815 11.9236 48.832C11.5021 48.5873 10.972 48.7368 10.5777 48.4242C10.5233 48.3834 10.3874 48.4106 10.333 48.3154Z" fill="#CBB894"/>
<path d="M48.7777 73.4776C48.3971 73.4776 48.098 73.4776 47.7989 73.4776C47.4047 73.1921 47.3095 72.7163 47.3095 72.3765C47.3231 71.7647 47.1328 71.2073 47.0104 70.65C46.9017 70.1062 46.956 69.4944 46.6162 69.005C46.657 67.6184 46.0452 66.3949 45.6238 65.1306C45.5558 64.9131 45.5694 64.7227 45.5422 64.5188C45.4742 64.0702 45.6781 63.5944 45.4063 63.1865C45.1751 62.8331 45.3791 62.4117 45.1616 61.9902C44.9576 61.596 45.08 60.9978 44.9033 60.4948C44.7537 60.087 45.2431 59.7743 45.1072 59.2849C45.9228 59.5432 46.2763 59.9646 46.4258 60.7395C46.6162 61.7591 46.7385 62.7923 47.024 63.7983C47.2823 64.6684 47.4047 65.5656 47.7037 66.4085C47.8397 66.7891 47.7717 67.1834 47.9212 67.496C48.0844 67.8359 48.0164 68.1758 48.1252 68.4884C48.4514 69.5216 48.2475 70.6364 48.7097 71.6696C48.9544 72.159 48.7777 72.8115 48.7777 73.4776Z" fill="#CBB894"/>
<path d="M108.425 50.0149C106.902 50.0149 105.393 50.0149 103.871 50.0149C103.776 49.4576 103.735 33.9462 103.83 32.2468C103.844 32.2332 103.871 32.2061 103.884 32.2061C107.691 32.2061 111.497 32.2061 115.317 32.2061C115.399 32.3964 115.358 32.6003 115.358 32.8042C115.399 34.0141 115.576 35.2105 115.494 36.4204C115.481 36.5563 115.535 36.6923 115.44 36.8282C115.277 36.5291 115.086 36.2572 114.978 35.9582C114.679 35.1425 114.135 34.4763 113.605 33.8102C113.074 33.1441 112.327 32.777 111.47 32.5867C111.144 32.5187 110.804 32.5459 110.505 32.4508C110.152 32.342 109.812 32.342 109.472 32.3284C109.132 32.3284 108.806 32.3284 108.439 32.3284C108.439 35.1425 108.439 37.9158 108.439 40.757C108.778 40.757 109.146 40.7162 109.485 40.7706C109.839 40.825 110.124 40.6619 110.451 40.5939C110.736 40.5395 111.035 40.3628 111.28 40.1453C111.81 39.6695 112.218 39.1121 112.49 38.4731C112.626 38.1605 112.707 37.8342 112.816 37.5351C112.83 37.6031 112.789 37.4536 112.857 37.5079C112.87 37.5215 112.898 37.5351 112.898 37.5623C112.952 38.9218 112.911 43.9654 112.843 44.5499C112.653 44.2916 112.571 43.9789 112.503 43.6935C112.381 43.1905 112.109 42.769 111.851 42.334C111.538 41.8038 111.062 41.5319 110.532 41.2736C110.233 41.1377 109.92 41.0833 109.621 41.0289C109.254 40.9745 108.86 41.0153 108.425 41.0153C108.425 43.9246 108.425 46.8202 108.425 49.7158C108.425 49.8246 108.425 49.9198 108.425 50.0149Z" fill="white"/>
<path d="M65.5998 32.4779C65.5998 32.8586 65.5182 33.2664 65.6134 33.6199C65.8309 34.422 65.6813 35.2105 65.7357 36.0125C65.7221 36.2844 65.7765 36.5563 65.6813 36.869C65.5454 36.5971 65.4366 36.366 65.3279 36.1485C65.2599 35.931 65.1375 35.727 65.0288 35.5367C64.5802 34.7754 64.1859 33.9598 63.4246 33.4296C63.3703 33.2121 63.1391 33.1849 62.9896 33.1033C62.5546 32.8178 62.0788 32.5867 61.5214 32.6139C61.4398 32.3556 61.2223 32.5187 61.0728 32.4779C60.4338 32.3148 59.3191 32.2876 58.6665 32.41C58.6665 32.7906 58.6665 33.1713 58.6665 33.5655C58.6665 34.1501 58.6665 34.7482 58.6665 35.3328C58.6665 36.1893 58.6665 37.0593 58.6665 37.9158C58.6665 38.1469 58.6665 38.3644 58.6665 38.5955C58.6665 39.316 58.6665 40.0365 58.6665 40.7706C59.1831 40.7706 59.6589 40.7706 60.1212 40.7706C60.2299 40.7706 60.3251 40.7434 60.4338 40.7163C61.2087 40.4987 61.8205 40.0637 62.2419 39.4112C62.4594 39.0849 62.8129 38.7994 62.7313 38.3236C63.0168 38.2013 62.9488 37.875 63.1391 37.6847C63.1391 37.8478 63.1391 38.0245 63.1391 38.1877C63.1391 40.2812 63.1391 42.3884 63.1391 44.4819C63.1391 44.4955 63.1255 44.5227 63.112 44.5363C63.0984 44.5499 63.0848 44.5499 63.0712 44.5635C62.8537 43.7071 62.5546 43.0545 62.0652 42.266C61.5894 41.5183 60.8553 41.2057 60.0396 41.0561C59.6046 40.9745 59.1423 41.0425 58.6665 41.0425C58.6665 42.2796 58.6665 43.5031 58.6665 44.713C58.6665 45.0801 58.6665 45.4336 58.6665 45.8006C58.6665 46.6163 58.6665 47.432 58.6665 48.2476C58.6665 48.7506 58.6665 49.24 58.6665 49.743C58.6665 49.7838 58.6665 49.8382 58.6665 49.879C57.1439 49.879 55.635 49.879 54.1124 49.879C54.0036 49.2808 53.9628 34.7482 54.058 32.2061C54.6425 32.2061 55.2135 32.2061 55.7981 32.2061C56.2059 32.2061 56.6138 32.2061 57.0216 32.2061C58.8297 32.2061 60.6513 32.2061 62.4594 32.2061C63.4654 32.2061 64.4714 32.2061 65.4774 32.2061C65.491 32.2061 65.5182 32.2197 65.5318 32.2332C65.5454 32.2468 65.559 32.2604 65.5726 32.274C65.5998 32.342 65.5998 32.41 65.5998 32.4779Z" fill="white"/>
<path d="M37.868 43.8978C37.5825 43.925 37.732 44.1833 37.6776 44.3193C37.2834 45.2981 36.9707 46.2905 36.5901 47.2693C36.4949 47.5004 36.5493 47.7043 36.5221 47.8266C36.9435 48.9686 37.9088 49.4172 38.9691 49.9882C36.9979 49.9882 35.2034 49.9882 33.3274 49.9882C33.4497 49.8794 33.5177 49.7571 33.5993 49.7435C34.1703 49.6755 34.6189 49.3221 35.0675 49.0366C35.5841 48.6967 35.8832 48.1393 36.0735 47.5684C36.291 46.9566 36.5085 46.3448 36.7396 45.7331C36.9707 45.1485 37.2018 44.564 37.3922 43.9658C37.5961 43.354 37.8272 42.7423 38.0447 42.1305C38.303 41.3964 38.5749 40.6759 38.8604 39.9554C39.309 38.8542 39.5945 37.6851 40.1519 36.6111C40.2198 35.9722 40.682 35.4556 40.8044 34.8438C40.9267 34.2321 41.3482 33.7291 41.3754 33.1037C41.6201 32.8047 41.6473 32.3968 41.8376 32.0706C42.4493 32.0706 43.0475 32.0706 43.6864 32.0706C43.8632 32.5192 44.0671 32.9542 44.2166 33.4164C44.339 33.7699 44.5293 34.1097 44.6245 34.4768C44.7196 34.8303 44.8692 35.1429 44.9915 35.4828C45.2226 36.1625 45.4673 36.8287 45.7256 37.4948C45.8616 37.8482 46.0247 38.1881 46.1335 38.5552C46.2422 38.895 46.3646 39.2349 46.4869 39.5612C46.7588 40.2409 46.9763 40.9478 47.2346 41.6275C47.4793 42.2937 47.7512 42.9598 47.9823 43.6259C48.2134 44.3193 48.4717 45.0126 48.73 45.6923C48.9747 46.3448 49.1922 46.9974 49.4369 47.6499C49.6952 48.3568 49.9671 49.0638 50.2254 49.7707C50.2526 49.8251 50.2254 49.893 50.2118 49.9882C48.6077 49.9882 47.0035 49.9882 45.3722 49.9882C44.9915 49.6619 44.9507 49.1317 44.8012 48.6831C44.3118 47.1605 43.6864 45.6923 43.2786 44.1425C43.2378 44.0066 43.1563 43.9114 43.0067 43.8842C43.0067 43.7891 43.0067 43.7075 43.0067 43.6123C43.0067 43.5036 43.0475 43.3676 43.0067 43.2725C42.5581 42.2937 42.3134 41.2469 41.9327 40.2545C41.5521 39.2485 41.3074 38.2017 40.9539 37.1957C40.8588 36.9238 40.8588 36.5704 40.5869 36.3936C40.4645 36.4208 40.4509 36.4752 40.4238 36.5432C40.1247 37.2501 39.9072 37.9978 39.6353 38.7319C39.1731 39.9418 38.7516 41.1789 38.3302 42.4024C38.1942 42.7967 37.9767 43.1773 37.9903 43.6123C37.8 43.6395 37.8816 43.7891 37.868 43.8978Z" fill="white"/>
<path d="M92.9252 49.8791C91.4026 49.8791 89.8936 49.8791 88.371 49.8791C88.2487 49.2674 88.2079 37.3178 88.3031 32.2334C89.8257 32.2334 91.3482 32.2334 92.9116 32.2334C92.9116 38.0791 92.9116 43.9111 92.9116 49.7432C92.9252 49.784 92.9252 49.8248 92.9252 49.8791Z" fill="white"/>
<path d="M76.8844 50.153C76.5446 50.153 76.2047 50.1666 75.8648 50.153C74.9268 50.085 74.0432 49.8131 73.1459 49.5004C72.4662 49.2693 71.936 48.8207 71.3107 48.5216C70.9436 47.9778 70.3862 47.6108 70.0192 47.0534C69.8696 46.8223 69.7881 46.5232 69.5434 46.3465C69.3802 45.7347 69.0404 45.2046 68.918 44.5792C68.7957 44.0218 68.6189 43.4509 68.6189 42.8935C68.6189 41.602 68.4558 40.3105 68.7141 39.0326C68.7957 38.6112 68.8636 38.2034 68.986 37.7955C69.054 37.578 69.2035 37.3605 69.1355 37.1158C69.1627 37.1158 69.2035 37.1158 69.2035 37.1158C69.4482 36.5176 69.6385 35.9059 70.0871 35.4165C70.1143 35.3757 70.0871 35.2805 70.0871 35.2262C70.1823 35.0494 70.359 34.9543 70.4678 34.7911C70.5901 34.6008 70.7805 34.4649 70.9436 34.3017C71.6641 33.5812 72.4798 33.0102 73.4314 32.6296C74.0568 32.3713 74.6957 32.1946 75.3754 32.0858C75.9328 31.9906 76.463 31.9771 77.0204 31.9771C77.0204 32.0178 77.0204 32.0722 77.0204 32.113C76.2591 32.3033 75.5522 32.5888 75.0356 33.2142C74.7229 33.5948 74.4646 34.0026 74.2879 34.4649C74.1383 34.8591 73.9888 35.2533 73.8936 35.6612C73.7985 36.0554 73.7849 36.4633 73.6081 36.8303C73.5945 36.8439 73.6081 36.8711 73.6081 36.8983C73.6897 37.5372 73.4314 38.1626 73.4586 38.8151C73.4994 39.9842 73.4994 41.167 73.4586 42.3361C73.4314 43.3013 73.4722 44.2529 73.6217 45.191C73.7577 46.061 73.9072 46.9447 74.2879 47.7603C74.5326 48.2905 74.8316 48.7663 75.2531 49.2014C75.7017 49.6772 76.2591 49.9219 76.8708 50.0578C76.8844 50.0578 76.8844 50.0986 76.8844 50.153Z" fill="white"/>
<path d="M78.6531 49.8806C79.2648 49.6631 79.4008 49.1601 79.4823 48.5755C79.7406 46.5363 79.5231 44.4971 79.6319 42.4036C80.3388 42.4036 81.0457 42.4036 81.7662 42.4036C82.4867 42.4036 83.2072 42.4036 83.9414 42.4036C83.9414 44.8914 83.9414 47.352 83.9414 49.8398C83.8054 49.9757 83.7782 49.6223 83.6287 49.7446C83.3568 49.4727 83.0577 49.2824 82.6499 49.3368C82.31 49.3912 81.9566 49.3096 81.6031 49.432C80.9777 49.6359 80.3116 49.7038 79.6863 49.8942C79.3328 50.0029 79.0065 50.0165 78.6531 50.0165C78.6531 49.9621 78.6531 49.9214 78.6531 49.8806Z" fill="white"/>
<path d="M94.4209 49.7421C95.4949 49.6333 96.5009 49.3886 97.3709 48.6545C98.0506 48.07 98.5536 47.3631 99.043 46.6425C99.5053 45.9492 99.9403 45.2151 100.267 44.4402C100.307 44.3315 100.362 44.3179 100.457 44.3179C100.593 44.8073 100.566 45.6094 100.443 46.1259C100.294 46.7513 100.47 47.3902 100.307 48.0292C100.158 48.6002 100.375 49.2663 100.076 49.8916C98.2274 49.8916 96.3241 49.8916 94.4345 49.8916C94.4209 49.8237 94.4209 49.7829 94.4209 49.7421Z" fill="white"/>
<path d="M109.918 49.7432C110.842 49.7025 111.726 49.4849 112.555 49.0771C112.99 48.8596 113.425 48.6013 113.779 48.2614C114.255 47.7992 114.771 47.3506 115.125 46.7796C115.424 46.2766 115.709 45.76 115.9 45.2027C115.968 44.9987 116.036 44.8356 116.28 44.6045C116.348 45.1891 116.307 45.6785 116.307 46.1543C116.09 46.331 116.185 46.5757 116.185 46.7796C116.171 47.7992 116.185 48.8188 116.185 49.8112C116.117 49.8792 116.076 49.92 115.981 50.0151C113.996 50.0151 111.957 50.0151 109.932 50.0151C109.918 49.92 109.918 49.8248 109.918 49.7432Z" fill="white"/>
<path d="M63.1539 49.8792C62.2023 49.8792 61.2507 49.8792 60.2991 49.8792C60.2991 49.8385 60.2991 49.7841 60.2991 49.7433C60.7477 49.8113 61.1691 49.5666 61.6177 49.5802C61.6313 49.5802 61.6449 49.5122 61.6585 49.4714C61.9712 49.4986 62.2295 49.3626 62.5014 49.2403C63.4666 48.7917 64.3503 48.2343 64.9212 47.2963C65.3019 46.9836 65.4922 46.5486 65.7505 46.1543C65.8185 46.032 65.9 45.9504 65.8728 45.8009C66.1311 45.7057 65.968 45.4202 66.1311 45.2571C66.2671 45.1347 66.2807 44.89 66.3622 44.6997C66.4302 44.7133 66.471 44.7133 66.5526 44.7269C66.5526 45.1211 66.5526 45.5154 66.5526 45.9232C66.4302 45.9096 66.4166 46.0048 66.4166 46.0999C66.4166 46.6301 66.4166 47.1603 66.4166 47.6905C66.4166 48.411 66.4166 49.1179 66.4166 49.8656C65.397 49.8656 64.4046 49.8656 63.4258 49.8656C63.3307 49.8792 63.2355 49.8792 63.1539 49.8792Z" fill="white"/>
<path d="M78.6531 32.0732C79.4687 32.0052 80.23 32.2363 81.0185 32.4402C81.5351 32.5626 82.0789 32.7393 82.6499 32.6033C82.813 32.549 82.8538 32.3043 83.1393 32.3586C83.1393 32.6305 83.1529 32.916 83.1393 33.2015C83.1121 34.425 83.384 35.6485 83.2752 36.8856C83.2616 37.0352 83.2752 37.1983 83.2752 37.3342C83.1393 37.3886 83.0713 37.4022 83.0033 37.2527C82.4731 36.1379 81.7798 35.1183 81.0593 34.1123C80.5427 33.3918 79.8766 32.9024 79.1833 32.3994C79.0337 32.2907 78.8026 32.3586 78.6531 32.2091C78.6531 32.1547 78.6531 32.1139 78.6531 32.0732Z" fill="white"/>
<path d="M43.0346 43.6282C43.0346 43.7233 43.0346 43.8049 43.0346 43.9001C41.3081 43.9001 39.5952 43.9001 37.8687 43.9001C37.8958 43.7913 37.8007 43.6418 38.0046 43.6282C39.6767 43.6282 41.3489 43.6282 43.0346 43.6282Z" fill="white"/>
<path d="M109.171 50.0703C109.757 50.0703 110.232 49.9851 110.232 49.88C110.232 49.7749 109.757 49.6897 109.171 49.6897C108.586 49.6897 108.111 49.7749 108.111 49.88C108.111 49.9851 108.586 50.0703 109.171 50.0703Z" fill="white"/>
<path d="M78.6511 49.8789C78.6511 49.9197 78.6511 49.9741 78.6511 50.0149C78.6511 50.0421 78.6511 50.0829 78.6511 50.0829C78.0801 50.1508 77.5227 50.3684 76.9382 50.2596C76.911 50.2596 76.911 50.1916 76.8838 50.1508C76.8838 50.1101 76.8838 50.0557 76.8838 50.0149C77.0877 50.0149 77.2916 50.0149 77.4955 50.0149C77.6995 50.0149 77.9034 49.9877 78.1073 50.0149C78.3112 50.0557 78.4336 49.811 78.6511 49.8789Z" fill="white"/>
<path d="M78.6521 32.0707C78.6521 32.1115 78.6521 32.1659 78.6521 32.2067C78.353 32.2747 78.1219 32.03 77.8364 32.0571C77.5645 32.0979 77.2926 32.0707 77.0208 32.0707C77.0208 32.03 77.0208 31.9756 77.0208 31.9348C77.0615 31.6765 77.3062 31.7717 77.3878 31.8124C77.7413 31.9892 78.1083 31.9212 78.4754 31.9348C78.5705 31.9348 78.6521 31.9348 78.6521 32.0707Z" fill="white"/>
<path d="M60.2974 49.7429C60.2974 49.7837 60.2974 49.8381 60.2974 49.8789C60.0934 49.8109 59.9575 50.0556 59.7536 50.0148C59.5769 49.9876 59.4001 50.0148 59.2098 50.0148C59.169 50.0148 59.1146 50.0148 59.0739 50.0148C59.0739 49.9196 59.0331 49.8789 58.9379 49.8789C58.8427 49.8789 58.7612 49.8789 58.666 49.8789C58.666 49.8381 58.666 49.7837 58.666 49.7429C59.2098 49.7429 59.7536 49.7429 60.2974 49.7429Z" fill="white"/>
<path d="M93.6734 49.9091C94.259 49.9091 94.7338 49.8665 94.7338 49.8139C94.7338 49.7614 94.259 49.7188 93.6734 49.7188C93.0878 49.7188 92.613 49.7614 92.613 49.8139C92.613 49.8665 93.0878 49.9091 93.6734 49.9091Z" fill="white"/>
<path d="M63.1543 49.8782C63.2495 49.8782 63.331 49.8782 63.4262 49.8782C63.4262 49.919 63.4262 49.9733 63.4262 50.0141C63.3174 49.9869 63.1679 50.0821 63.1543 49.8782Z" fill="white"/>
<path d="M58.9405 49.8782C59.0357 49.8782 59.0765 49.919 59.0765 50.0141C58.9813 50.0141 58.9269 49.9733 58.9405 49.8782Z" fill="white"/>
</svg>
