<svg width="65" height="65" viewBox="0 0 65 65" fill="none" xmlns="http://www.w3.org/2000/svg">
<rect x="1" y="1" width="63" height="63" rx="31.5" stroke="#E7B65F" stroke-width="2"/>
<path d="M31 41C31 41.5523 31.4477 42 32 42C32.5523 42 33 41.5523 33 41H31ZM32.7071 23.2929C32.3166 22.9024 31.6834 22.9024 31.2929 23.2929L24.9289 29.6569C24.5384 30.0474 24.5384 30.6805 24.9289 31.0711C25.3195 31.4616 25.9526 31.4616 26.3431 31.0711L32 25.4142L37.6569 31.0711C38.0474 31.4616 38.6805 31.4616 39.0711 31.0711C39.4616 30.6805 39.4616 30.0474 39.0711 29.6569L32.7071 23.2929ZM33 41V24H31V41H33Z" fill="#E7B65F"/>
</svg>
